<svg width="119" height="119" viewBox="0 0 119 119" fill="none" xmlns="http://www.w3.org/2000/svg">
<rect x="40.3702" width="87.9975" height="88" rx="8" transform="rotate(27.3066 40.3702 0)" fill="white"/>
<path d="M84.5349 45.3098L56.0469 30.6018C52.1365 28.583 47.2905 30.1926 45.2231 34.197L30.725 62.2785C28.6576 66.2829 30.1516 71.1658 34.062 73.1847L62.55 87.8926C66.4604 89.9115 71.3064 88.3019 73.3738 84.2974L87.8719 56.216C89.9393 52.2115 88.4453 47.3287 84.5349 45.3098Z" fill="#330000"/>
<path d="M56.4399 63.1712L49.831 59.7592L46.2778 63.3424C46.2192 63.411 46.1393 63.4572 46.0518 63.473C45.9642 63.4887 45.8746 63.4732 45.7983 63.4289L42.4509 61.7007C42.2601 61.6022 42.2488 61.4602 42.4171 61.2749L56.8519 47.3533C56.9998 47.207 57.1604 47.0365 57.3336 46.8413C57.6104 46.489 57.8538 46.1116 58.0606 45.7139C58.0711 45.684 58.0883 45.6569 58.1108 45.6346C58.1332 45.6124 58.1604 45.5957 58.1901 45.5858C58.2198 45.5759 58.2513 45.5732 58.2819 45.5777C58.3126 45.5823 58.3417 45.594 58.3668 45.612L62.9159 47.9606C63.0492 48.0295 63.1002 48.1178 63.0691 48.2255L59.8828 70.3293C59.8392 70.5544 59.7314 70.6226 59.5599 70.5338L55.8404 68.6135C55.7728 68.5878 55.7172 68.5378 55.6841 68.4729C55.6509 68.408 55.6424 68.3326 55.6602 68.2608L56.4399 63.1712ZM52.7668 56.5993L57.2873 58.9332L57.3353 58.682L57.4099 58.2837L57.4612 58.0033L57.5404 57.561L57.7046 56.6287L57.8519 55.8031L58.2374 53.6533C58.333 53.1188 58.4354 52.5855 58.5443 52.0534L58.6344 51.6223L58.7423 51.1134L58.9124 50.3261L58.9446 50.1779L58.9161 50.1632C58.4099 50.7925 57.8761 51.3987 57.3165 51.9799L56.1701 53.159L55.5377 53.8109L54.8982 54.4713C54.7826 54.5905 54.6681 54.7084 54.5544 54.8245L54.2166 55.1682L53.8843 55.5028L53.5579 55.8277L53.2371 56.1433C53.1312 56.2471 53.0262 56.3491 52.9222 56.4496L52.7668 56.5993ZM71.8979 56.5314C71.5999 56.3928 71.3354 56.1913 71.1216 55.9403C70.9078 55.6892 70.7495 55.3942 70.6572 55.0745C70.5702 54.7458 70.5485 54.4016 70.5933 54.0617C70.6382 53.7219 70.7487 53.3931 70.9185 53.0942C71.0641 52.7867 71.2714 52.5126 71.527 52.2897C71.7826 52.0668 72.0806 51.9002 72.4016 51.8007C73.0207 51.609 73.6843 51.6654 74.2541 51.9583L74.3147 51.9904C75.0015 52.345 75.4321 52.8331 75.6062 53.455C75.6909 53.7751 75.7121 54.1102 75.6687 54.4412C75.6253 54.7722 75.518 55.0925 75.3531 55.3837C75.2069 55.6963 75.0008 55.9772 74.747 56.2095C74.4932 56.4419 74.1969 56.6211 73.8757 56.7364C73.5585 56.8393 73.2254 56.8771 72.896 56.8477C72.5666 56.8183 72.2477 56.7222 71.9579 56.5652L71.8979 56.5314ZM61.7707 71.304L69.001 57.2994C69.0917 57.1237 69.2132 57.0749 69.3661 57.1539L72.8853 58.9708C73.0377 59.0495 73.0687 59.1767 72.978 59.3527L65.7477 73.3573C65.6467 73.5528 65.52 73.6111 65.3674 73.5322L61.8769 71.7301C61.7143 71.6461 61.6739 71.5142 61.756 71.3344L61.7707 71.304Z" fill="#FF9A00"/>
</svg>
