<svg width="89" height="89" viewBox="0 0 89 89" fill="none" xmlns="http://www.w3.org/2000/svg">
<rect x="0.281921" y="0.281937" width="87.9975" height="88" rx="8" fill="white"/>
<path d="M60.3111 20.2819H28.2502C23.8495 20.2819 20.2819 23.9353 20.2819 28.4419V60.0451C20.2819 64.5518 23.8495 68.2051 28.2502 68.2051H60.3111C64.7118 68.2051 68.2794 64.5518 68.2794 60.0451V28.4419C68.2794 23.9353 64.7118 20.2819 60.3111 20.2819Z" fill="#330000"/>
<path d="M43.5408 49.0416H36.1031L34.5896 53.8556C34.5691 53.9434 34.5192 54.0211 34.4487 54.0753C34.3781 54.1295 34.2913 54.1568 34.2032 54.1525H30.436C30.2213 54.1525 30.1461 54.0315 30.2106 53.7896L36.6504 34.7973C36.7147 34.5996 36.7792 34.3743 36.8435 34.1215C36.9278 33.6814 36.971 33.2344 36.9723 32.7861C36.9679 32.7548 36.9707 32.7228 36.9805 32.6927C36.9902 32.6627 37.0067 32.6354 37.0286 32.613C37.0504 32.5905 37.0771 32.5737 37.1064 32.5636C37.1358 32.5536 37.167 32.5507 37.1976 32.5551H42.3172C42.4672 32.5551 42.5531 32.6103 42.5748 32.7203L49.8838 53.8226C49.9483 54.0426 49.8838 54.1527 49.6907 54.1525H45.5048C45.4329 54.1606 45.3605 54.1417 45.3013 54.0992C45.2421 54.0568 45.1999 53.9936 45.1828 53.9217L43.5408 49.0416ZM37.2621 44.8871H42.3495L42.2769 44.6419L42.1605 44.2537L42.0774 43.9811L41.9449 43.5518L41.6631 42.648L41.4152 41.8468L40.7716 39.7598C40.6114 39.2409 40.4576 38.7201 40.3103 38.1973L40.1926 37.7729L40.055 37.2712L39.845 36.4936L39.8056 36.3471H39.7736C39.6125 37.1386 39.4163 37.9221 39.1856 38.6953L38.7079 40.2689L38.445 41.1383L38.1797 42.0184C38.1317 42.1774 38.0841 42.3347 38.0363 42.49L37.8938 42.9504L37.752 43.4001L37.6111 43.8386L37.4708 44.2662C37.4243 44.4069 37.3778 44.5457 37.3315 44.6828L37.2621 44.8871ZM54.2302 36.0503C53.9018 36.0638 53.5743 36.0062 53.2691 35.8812C52.964 35.7562 52.688 35.5666 52.4593 35.3249C52.2312 35.0727 52.0541 34.7769 51.938 34.4543C51.8219 34.1318 51.7693 33.7889 51.783 33.4455C51.7714 33.1054 51.8299 32.7667 51.9547 32.4514C52.0795 32.1362 52.2679 31.8514 52.5075 31.6157C52.9697 31.1613 53.5852 30.9071 54.2259 30.9059L54.2945 30.9066C55.0673 30.9066 55.6738 31.1428 56.1139 31.6155C56.336 31.8611 56.5086 32.1492 56.6218 32.4632C56.7351 32.7772 56.7867 33.111 56.7738 33.4455C56.7873 33.7903 56.733 34.1344 56.6141 34.4573C56.4952 34.7802 56.3141 35.0753 56.0816 35.3251C55.8469 35.5621 55.5683 35.7485 55.2621 35.8735C54.956 35.9984 54.6285 36.0594 54.299 36.0528L54.2302 36.0503ZM52.0084 53.8226V38.0617C52.0084 37.8639 52.0939 37.7649 52.266 37.7649H56.2266C56.3981 37.7649 56.484 37.8638 56.4842 38.0617V53.8226C56.4842 54.0426 56.3983 54.1527 56.2266 54.1525H52.2983C52.1153 54.1525 52.0189 54.0538 52.0093 53.8564L52.0084 53.8226Z" fill="#FF9A00"/>
</svg>
