<svg width="88" height="88" viewBox="0 0 88 88" fill="none" xmlns="http://www.w3.org/2000/svg">
<rect x="0.00012207" width="87.9975" height="88" rx="8" fill="white"/>
<path d="M56.7482 20H31.2495C25.0367 20 20.0001 25.0368 20.0001 31.25V56.75C20.0001 62.9632 25.0367 68 31.2495 68H56.7482C62.961 68 67.9976 62.9632 67.9976 56.75V31.25C67.9976 25.0368 62.961 20 56.7482 20Z" fill="#F4F2ED"/>
<mask id="mask0_2_240" style="mask-type:luminance" maskUnits="userSpaceOnUse" x="31" y="25" width="26" height="38">
<path d="M31.437 25.25H56.4407V62.75H31.437V25.25Z" fill="white"/>
</mask>
<g mask="url(#mask0_2_240)">
<path d="M37.6892 62.75C41.1391 62.75 43.9389 59.9501 43.9389 56.5001V50.2499H37.6892C34.2394 50.2499 31.4395 53.0501 31.4395 56.5001C31.4395 59.9501 34.2394 62.75 37.6892 62.75Z" fill="#0ACF83"/>
<path d="M31.4395 44C31.4395 40.55 34.2394 37.7501 37.6892 37.7501H43.9389V50.2499H37.6892C34.2394 50.2499 31.4395 47.45 31.4395 44Z" fill="#A259FF"/>
<path d="M31.4395 31.4999C31.4395 28.0499 34.2394 25.25 37.6892 25.25H43.9389V37.7501H37.6892C34.2394 37.7501 31.4395 34.9499 31.4395 31.4999Z" fill="#F24E1E"/>
<path d="M43.9388 25.25H50.1884C53.6383 25.25 56.4382 28.0499 56.4382 31.4999C56.4382 34.9499 53.6383 37.7501 50.1884 37.7501H43.9388V25.25Z" fill="#FF7262"/>
<path d="M56.4382 44C56.4382 47.45 53.6383 50.2499 50.1884 50.2499C46.7386 50.2499 43.9388 47.45 43.9388 44C43.9388 40.55 46.7386 37.7501 50.1884 37.7501C53.6383 37.7501 56.4382 40.55 56.4382 44Z" fill="#1ABCFE"/>
</g>
</svg>
