<svg width="78" height="78" viewBox="0 0 78 78" fill="none" xmlns="http://www.w3.org/2000/svg">
<rect y="15.041" width="64" height="64" rx="10.2931" transform="rotate(-13.5929 0 15.041)" fill="white"/>
<path fill-rule="evenodd" clip-rule="evenodd" d="M39.4281 28.8041C35.586 29.7272 32.5473 32.6622 31.4913 36.4699C30.4353 40.2776 31.5283 44.3585 34.3461 47.1286L32.8167 54.4061L38.5905 49.721C42.9802 51.1709 47.8069 49.6906 50.629 46.0289C53.4511 42.3672 53.6531 37.3227 51.1329 33.447C48.6126 29.5714 43.9197 27.7099 39.4281 28.8041Z" fill="#FFD76F" stroke="black" stroke-width="1.02931" stroke-linecap="round" stroke-linejoin="round"/>
<path d="M37.9671 34.7578L38.5793 37.2896" stroke="black" stroke-width="1.02931" stroke-linecap="round" stroke-linejoin="round"/>
<path d="M46.9334 42.058C48.4147 39.3594 47.5968 35.9766 45.0461 34.2529" stroke="black" stroke-width="1.02931" stroke-linecap="round" stroke-linejoin="round"/>
<path fill-rule="evenodd" clip-rule="evenodd" d="M39.6921 43.1425C40.1096 43.0416 40.3662 42.6213 40.2652 42.2038C40.1643 41.7864 39.744 41.5298 39.3265 41.6307C38.9091 41.7316 38.6524 42.1519 38.7534 42.5694C38.8543 42.9869 39.2746 43.2435 39.6921 43.1425Z" fill="black"/>
<path d="M39.6921 43.1425C40.1096 43.0416 40.3662 42.6213 40.2652 42.2038C40.1643 41.7864 39.744 41.5298 39.3265 41.6307V41.6307C38.9091 41.7316 38.6524 42.1519 38.7534 42.5694C38.8543 42.9869 39.2746 43.2435 39.6921 43.1425" stroke="black" stroke-width="1.02931" stroke-linecap="round" stroke-linejoin="round"/>
<path d="M40.4277 45.3653C41.1132 44.8359 41.4472 43.9855 41.2956 43.1551C41.0948 42.3246 40.382 41.3757 39.3268 41.6309" stroke="black" stroke-width="1.02931" stroke-linecap="round" stroke-linejoin="round"/>
</svg>
