<svg width="83" height="83" viewBox="0 0 83 83" fill="none" xmlns="http://www.w3.org/2000/svg">
<rect y="22.9453" width="64" height="64" rx="2.74483" transform="rotate(-21.0094 0 22.9453)" fill="white"/>
<g clip-path="url(#clip0_331_2812)">
<path d="M43.0718 40.3866C43.5134 41.5364 42.9392 42.8265 41.7894 43.2681C40.6396 43.7097 39.3495 43.1355 38.908 41.9857C38.4664 40.8359 39.0405 39.5458 40.1903 39.1043C41.3401 38.6627 42.6302 39.2368 43.0718 40.3866ZM44.2496 49.674C38.7819 51.7739 32.7774 49.9961 29.2692 45.6876C28.9915 40.1384 32.2623 34.7983 37.7301 32.6984C43.1977 30.5985 49.2022 32.3763 52.7104 36.6848C52.9882 42.234 49.7173 47.5741 44.2496 49.674ZM43.1425 46.7913C46.2382 45.6024 47.7839 42.1291 46.595 39.0335C45.4061 35.9379 41.9328 34.3921 38.8372 35.581C35.7416 36.7699 34.1958 40.2432 35.3847 43.3388C36.5736 46.4345 40.0469 47.9802 43.1425 46.7913Z" fill="#F2B68D" stroke="black" stroke-width="1.02931"/>
</g>
<defs>
<clipPath id="clip0_331_2812">
<rect width="27.4483" height="27.4483" fill="white" transform="translate(23.2577 33.2949) rotate(-21.0094)"/>
</clipPath>
</defs>
</svg>
