<svg width="77" height="77" viewBox="0 0 77 77" fill="none" xmlns="http://www.w3.org/2000/svg">
<rect x="14.6484" width="64" height="64" rx="24.0172" transform="rotate(13.2319 14.6484 0)" fill="white"/>
<path d="M30.6646 51.3203L39.0145 53.2837" stroke="black" stroke-width="1.02931" stroke-linecap="round" stroke-linejoin="round"/>
<path d="M35.6247 48.9619L34.8394 52.3019" stroke="black" stroke-width="1.02931" stroke-linecap="round" stroke-linejoin="round"/>
<rect x="27.8123" y="25.9775" width="25.7328" height="20.5862" rx="1.71552" transform="rotate(13.2319 27.8123 25.9775)" fill="#BBDAC5" stroke="black" stroke-width="1.02931" stroke-linecap="round" stroke-linejoin="round"/>
<path fill-rule="evenodd" clip-rule="evenodd" d="M43.7057 34.2329C43.405 33.7201 42.9073 33.3529 42.3286 33.2168C41.7499 33.0807 41.1407 33.1877 40.643 33.5128L39.0113 34.5613L38.0178 32.8955C37.7171 32.3827 37.2194 32.0155 36.6407 31.8794C36.062 31.7433 35.4528 31.8503 34.9551 32.1754C33.9008 32.8623 33.5729 34.2568 34.2106 35.3416L37.1689 40.3032C37.2606 40.4593 37.4122 40.5711 37.5884 40.6126C37.7647 40.654 37.9502 40.6215 38.1019 40.5226L42.9612 37.3992C44.0155 36.7122 44.3434 35.3178 43.7057 34.2329Z" fill="white" stroke="black" stroke-width="1.02931" stroke-linecap="round" stroke-linejoin="round"/>
<path d="M26.4025 41.3311L47.5116 46.2946" stroke="black" stroke-width="0.997832" stroke-linecap="round" stroke-linejoin="round"/>
</svg>
