<svg width="119" height="119" viewBox="0 0 119 119" fill="none" xmlns="http://www.w3.org/2000/svg">
<rect x="40.3701" width="87.9975" height="88" rx="8" transform="rotate(27.3066 40.3701 0)" fill="#F5F5F7"/>
<path d="M84.5348 45.3098L56.0467 30.6018C52.1364 28.583 47.2904 30.1926 45.2229 34.197L30.7249 62.2785C28.6575 66.2829 30.1515 71.1658 34.0618 73.1847L62.5499 87.8926C66.4603 89.9115 71.3063 88.3019 73.3737 84.2974L87.8718 56.216C89.9392 52.2115 88.4452 47.3287 84.5348 45.3098Z" fill="#330000"/>
<path d="M56.4398 63.1712L49.8309 59.7592L46.2777 63.3424C46.2191 63.411 46.1392 63.4572 46.0516 63.473C45.9641 63.4887 45.8745 63.4732 45.7982 63.4289L42.4507 61.7007C42.26 61.6022 42.2487 61.4602 42.417 61.2749L56.8518 47.3533C56.9997 47.207 57.1603 47.0365 57.3335 46.8413C57.6103 46.489 57.8537 46.1116 58.0605 45.7139C58.071 45.684 58.0882 45.6569 58.1106 45.6346C58.1331 45.6124 58.1603 45.5957 58.19 45.5858C58.2197 45.5759 58.2511 45.5732 58.2818 45.5777C58.3125 45.5823 58.3416 45.594 58.3667 45.612L62.9158 47.9606C63.0491 48.0295 63.1001 48.1178 63.069 48.2255L59.8827 70.3293C59.839 70.5544 59.7313 70.6226 59.5597 70.5338L55.8403 68.6135C55.7727 68.5878 55.7171 68.5378 55.6839 68.4729C55.6508 68.408 55.6423 68.3326 55.6601 68.2608L56.4398 63.1712ZM52.7667 56.5993L57.2871 58.9332L57.3352 58.682L57.4098 58.2837L57.4611 58.0033L57.5402 57.561L57.7044 56.6287L57.8517 55.8031L58.2373 53.6533C58.3329 53.1188 58.4352 52.5855 58.5442 52.0534L58.6343 51.6223L58.7421 51.1134L58.9123 50.3261L58.9445 50.1779L58.916 50.1632C58.4098 50.7925 57.876 51.3987 57.3163 51.9799L56.1699 53.159L55.5375 53.8109L54.898 54.4713C54.7825 54.5905 54.668 54.7084 54.5543 54.8245L54.2164 55.1682L53.8842 55.5028L53.5577 55.8277L53.237 56.1433C53.1311 56.2471 53.0261 56.3491 52.9221 56.4496L52.7667 56.5993ZM71.8978 56.5314C71.5998 56.3928 71.3353 56.1913 71.1214 55.9403C70.9076 55.6892 70.7494 55.3942 70.6571 55.0745C70.5701 54.7458 70.5484 54.4016 70.5932 54.0617C70.6381 53.7219 70.7486 53.3931 70.9184 53.0942C71.064 52.7867 71.2713 52.5126 71.5269 52.2897C71.7825 52.0668 72.0805 51.9002 72.4015 51.8007C73.0206 51.609 73.6842 51.6654 74.254 51.9583L74.3146 51.9904C75.0013 52.345 75.4319 52.8331 75.6061 53.455C75.6908 53.7751 75.712 54.1102 75.6686 54.4412C75.6251 54.7722 75.5179 55.0925 75.353 55.3837C75.2068 55.6963 75.0007 55.9772 74.7469 56.2095C74.4931 56.4419 74.1968 56.6211 73.8756 56.7364C73.5584 56.8393 73.2252 56.8771 72.8959 56.8477C72.5665 56.8183 72.2476 56.7222 71.9578 56.5652L71.8978 56.5314ZM61.7705 71.304L69.0009 57.2994C69.0916 57.1237 69.213 57.0749 69.366 57.1539L72.8852 58.9708C73.0376 59.0495 73.0685 59.1767 72.9779 59.3527L65.7475 73.3573C65.6466 73.5528 65.5198 73.6111 65.3673 73.5322L61.8768 71.7301C61.7142 71.6461 61.6738 71.5142 61.7559 71.3344L61.7705 71.304Z" fill="#FF9A00"/>
</svg>
