<svg width="88" height="88" viewBox="0 0 88 88" fill="none" xmlns="http://www.w3.org/2000/svg">
<rect width="87.9975" height="88" rx="8" fill="#F5F5F7"/>
<path d="M56.7481 20H31.2494C25.0365 20 20 25.0368 20 31.25V56.75C20 62.9632 25.0365 68 31.2494 68H56.7481C62.9609 68 67.9975 62.9632 67.9975 56.75V31.25C67.9975 25.0368 62.9609 20 56.7481 20Z" fill="#F4F2ED"/>
<mask id="mask0_885_103" style="mask-type:luminance" maskUnits="userSpaceOnUse" x="31" y="25" width="26" height="38">
<path d="M31.4365 25.25H56.4402V62.75H31.4365V25.25Z" fill="white"/>
</mask>
<g mask="url(#mask0_885_103)">
<path d="M37.6883 62.75C41.1381 62.75 43.9379 59.9501 43.9379 56.5001V50.2499H37.6883C34.2385 50.2499 31.4385 53.0501 31.4385 56.5001C31.4385 59.9501 34.2385 62.75 37.6883 62.75Z" fill="#0ACF83"/>
<path d="M31.4385 44C31.4385 40.55 34.2385 37.7501 37.6883 37.7501H43.9379V50.2499H37.6883C34.2385 50.2499 31.4385 47.45 31.4385 44Z" fill="#A259FF"/>
<path d="M31.4385 31.4999C31.4385 28.0499 34.2385 25.25 37.6883 25.25H43.9379V37.7501H37.6883C34.2385 37.7501 31.4385 34.9499 31.4385 31.4999Z" fill="#F24E1E"/>
<path d="M43.9375 25.25H50.1871C53.6369 25.25 56.4369 28.0499 56.4369 31.4999C56.4369 34.9499 53.6369 37.7501 50.1871 37.7501H43.9375V25.25Z" fill="#FF7262"/>
<path d="M56.4369 44C56.4369 47.45 53.6369 50.2499 50.1871 50.2499C46.7373 50.2499 43.9375 47.45 43.9375 44C43.9375 40.55 46.7373 37.7501 50.1871 37.7501C53.6369 37.7501 56.4369 40.55 56.4369 44Z" fill="#1ABCFE"/>
</g>
</svg>
