<svg width="66" height="66" viewBox="0 0 66 66" fill="none" xmlns="http://www.w3.org/2000/svg">
<g id="logos:adobe-illustrator">
<path id="Vector" d="M58.5352 19.3098L30.0472 4.60184C26.1368 2.58297 21.2908 4.19259 19.2234 8.19703L4.72532 36.2785C2.65789 40.2829 4.15189 45.1658 8.06227 47.1847L36.5503 61.8927C40.4607 63.9115 45.3067 62.3019 47.3741 58.2975L61.8722 30.216C63.9396 26.2116 62.4456 21.3287 58.5352 19.3098Z" fill="#330000"/>
<path id="Vector_2" d="M30.4402 37.1712L23.8313 33.7592L20.2781 37.3424C20.2196 37.411 20.1396 37.4572 20.0521 37.473C19.9645 37.4887 19.8749 37.4732 19.7986 37.4289L16.4512 35.7007C16.2604 35.6022 16.2491 35.4602 16.4174 35.2749L30.8522 21.3533C31.0001 21.207 31.1607 21.0365 31.3339 20.8413C31.6107 20.489 31.8541 20.1116 32.0609 19.7139C32.0714 19.684 32.0886 19.6569 32.1111 19.6346C32.1335 19.6124 32.1607 19.5957 32.1904 19.5858C32.2201 19.5759 32.2516 19.5732 32.2822 19.5777C32.3129 19.5823 32.342 19.594 32.3671 19.612L36.9162 21.9606C37.0495 22.0295 37.1005 22.1178 37.0694 22.2255L33.8831 44.3293C33.8395 44.5544 33.7317 44.6226 33.5602 44.5338L29.8407 42.6135C29.7731 42.5878 29.7175 42.5378 29.6844 42.4729C29.6512 42.408 29.6427 42.3326 29.6606 42.2608L30.4402 37.1712ZM26.7671 30.5993L31.2876 32.9332L31.3356 32.682L31.4102 32.2837L31.4615 32.0033L31.5407 31.561L31.7049 30.6287L31.8522 29.8031L32.2377 27.6533C32.3333 27.1188 32.4357 26.5855 32.5447 26.0534L32.6347 25.6223L32.7426 25.1134L32.9127 24.3261L32.9449 24.1779L32.9164 24.1632C32.4102 24.7925 31.8764 25.3987 31.3168 25.9799L30.1704 27.159L29.538 27.8109L28.8985 28.4713C28.7829 28.5905 28.6684 28.7084 28.5547 28.8245L28.2169 29.1682L27.8846 29.5028L27.5582 29.8277L27.2374 30.1433C27.1315 30.2471 27.0265 30.3491 26.9225 30.4496L26.7671 30.5993ZM45.8982 30.5314C45.6002 30.3928 45.3357 30.1913 45.1219 29.9403C44.9081 29.6892 44.7498 29.3942 44.6575 29.0745C44.5705 28.7458 44.5488 28.4016 44.5937 28.0617C44.6385 27.7219 44.749 27.3931 44.9188 27.0942C45.0644 26.7867 45.2718 26.5126 45.5273 26.2897C45.7829 26.0668 46.0809 25.9002 46.4019 25.8007C47.021 25.609 47.6846 25.6654 48.2544 25.9583L48.315 25.9904C49.0018 26.345 49.4324 26.8331 49.6065 27.455C49.6912 27.7751 49.7124 28.1102 49.669 28.4412C49.6256 28.7722 49.5183 29.0925 49.3534 29.3837C49.2072 29.6963 49.0011 29.9772 48.7473 30.2095C48.4935 30.4419 48.1972 30.6211 47.876 30.7364C47.5588 30.8393 47.2257 30.8771 46.8963 30.8477C46.5669 30.8183 46.248 30.7222 45.9582 30.5652L45.8982 30.5314ZM35.771 45.304L43.0013 31.2994C43.092 31.1237 43.2135 31.0749 43.3664 31.1539L46.8856 32.9708C47.038 33.0495 47.069 33.1767 46.9783 33.3527L39.748 47.3573C39.647 47.5528 39.5203 47.6111 39.3677 47.5322L35.8772 45.7301C35.7146 45.6461 35.6742 45.5142 35.7563 45.3344L35.771 45.304Z" fill="#FF9A00"/>
</g>
</svg>
