<svg width="69" height="69" viewBox="0 0 69 69" fill="none" xmlns="http://www.w3.org/2000/svg">
<g id="logos:adobe-photoshop">
<path id="Vector" d="M62.4807 28.3517L39.6225 5.87066C36.4849 2.78483 31.3797 2.88797 28.2196 6.10105L6.05941 28.633C2.89934 31.8461 2.88113 36.9523 6.01873 40.0382L28.8769 62.5192C32.0145 65.6051 37.1198 65.5019 40.2798 62.2888L62.44 39.7569C65.6001 36.5438 65.6183 31.4376 62.4807 28.3517Z" fill="#001E36"/>
<path id="Vector_2" d="M18.0817 31.822L32.8558 16.8001C32.9635 16.6906 33.0636 16.6808 33.1554 16.7711L33.3011 16.9136L33.5522 17.1551L33.9042 17.4876L35.0851 18.5997L36.3481 19.7955C36.7916 20.2167 37.228 20.6378 37.6565 21.0593C38.8195 22.203 39.6525 23.3153 40.1557 24.3959C40.6291 25.3508 40.8811 26.4044 40.8934 27.48C40.8937 28.4022 40.6939 29.3181 40.3079 30.1648C39.926 30.9825 39.4049 31.7301 38.7682 32.3733C37.5349 33.6273 36.2343 34.3831 34.8668 34.6409C33.5312 34.8911 32.1608 34.7392 30.9304 34.2047L30.8256 34.1581C29.5433 33.5975 28.3845 32.7109 27.2445 31.6056L27.068 31.4331L26.8083 31.175L26.6785 31.0436L26.5353 30.8957L26.4503 30.8051L26.3994 30.7494L26.272 30.6144L26.1138 30.4521L25.8722 30.211L25.8182 30.1576L21.2054 34.8479C21.1811 34.8806 21.1497 34.9074 21.1137 34.9261C21.0776 34.9448 21.0379 34.955 20.9976 34.9558C20.9574 34.9566 20.9177 34.9481 20.8817 34.9308C20.8458 34.9135 20.8146 34.888 20.7906 34.8562L18.0575 32.1682C17.9501 32.0627 17.9581 31.9477 18.0817 31.822ZM33.3438 22.5061L28.5251 27.4056C28.6934 27.6009 28.8694 27.7895 29.0527 27.9708L29.8103 28.716C30.3345 29.2279 30.9321 29.659 31.5845 29.9958L31.7156 30.062C32.3065 30.3709 32.9778 30.5013 33.6495 30.4376C34.2789 30.3731 34.8987 30.041 35.5091 29.441L35.5769 29.3733C36.0362 28.9304 36.362 28.3681 36.5155 27.7529C36.6447 27.1391 36.5827 26.5047 36.3378 25.9363C36.0131 25.199 35.5414 24.5385 34.9509 23.9943L34.6589 23.7088L34.4737 23.5298L34.2961 23.3597L34.044 23.1215L33.8584 22.9492L33.7612 22.8606L33.63 22.7434L33.5168 22.6452L33.4511 22.5903L33.3934 22.5438L33.3676 22.5238L33.3438 22.5061ZM45.9674 42.8076C45.7742 42.203 45.5052 41.6269 45.1666 41.093L45.087 40.9706C44.7157 40.3821 44.284 39.8346 43.7989 39.3367L43.6766 39.2135C43.3941 38.9197 43.069 38.6701 42.7117 38.4726C42.4933 38.3377 42.2322 38.2858 41.975 38.326C41.7829 38.3716 41.6066 38.4712 41.4672 38.6129C41.3362 38.7545 41.2546 38.9343 41.235 39.1243C41.2133 39.3901 41.2396 39.6564 41.3124 39.9106L41.3356 39.9865C41.4855 40.4889 41.6645 40.9814 41.8718 41.4617C42.3825 42.4835 42.7654 43.5668 43.012 44.6874C43.1822 45.4488 43.1596 46.2451 42.9462 47.0047C42.7154 47.6955 42.3219 48.324 41.7995 48.8364C41.1356 49.5389 40.2778 50.0266 39.3409 50.2341C38.3693 50.4244 37.3701 50.3325 36.4623 49.9694C35.4909 49.6103 34.5102 48.9535 33.5197 47.9996L33.4173 47.9C32.8033 47.3085 32.25 46.6572 31.7652 45.9551L31.6624 45.804C31.2523 45.2148 30.918 44.5753 30.6672 43.9001C30.6447 43.8294 30.6416 43.7536 30.6581 43.6804C30.6745 43.6072 30.71 43.5392 30.7609 43.4834L33.2809 40.9211C33.3027 40.8935 33.3313 40.8722 33.3638 40.8594C33.3964 40.8465 33.4316 40.8427 33.4657 40.8483C33.4966 40.8562 33.5241 40.8735 33.5446 40.8978C33.5651 40.9221 33.5775 40.9522 33.5803 40.9841C33.8033 41.8559 34.1617 42.6844 34.6426 43.4396C35.0525 44.1196 35.5411 44.7477 36.0988 45.3112C36.6343 45.8379 37.0978 46.1548 37.4891 46.2623C37.6558 46.321 37.8371 46.3297 38.011 46.2874C38.1849 46.245 38.344 46.1534 38.4691 46.0236C38.6691 45.8202 38.7471 45.5113 38.7027 45.0973C38.684 44.9238 38.6303 44.7022 38.5418 44.4328L38.4984 44.305L38.4502 44.1706L38.4242 44.1008L38.3683 43.956C38.3585 43.931 38.3487 43.906 38.3387 43.881L38.2754 43.7262L38.2419 43.6461L38.1712 43.481L38.134 43.3959L38.056 43.2203L37.9729 43.0382C37.5048 42.0723 37.1713 41.0443 36.9817 39.9821C36.8473 39.2212 36.8935 38.4352 37.1166 37.6869C37.3465 37.0016 37.7357 36.3775 38.2519 35.8667C38.8624 35.2435 39.6294 34.7973 40.468 34.5777C41.4038 34.3481 42.3796 34.3923 43.2779 34.7054C44.2901 35.0231 45.3014 35.6783 46.3118 36.6715C46.9082 37.2486 47.4568 37.8731 47.9523 38.5394C48.3218 39.011 48.6231 39.533 48.8477 40.0906C48.8926 40.1714 48.8965 40.2692 48.8581 40.3553C48.8173 40.4281 48.7667 40.4949 48.7077 40.5543L46.3725 42.9286C46.3207 42.988 46.2414 43.0159 46.165 43.0019C46.119 42.9873 46.0771 42.9622 46.0429 42.9285C46.0086 42.8948 45.9828 42.8534 45.9674 42.8076Z" fill="#31A8FF"/>
</g>
</svg>
