<svg width="32" height="32" viewBox="0 0 32 32" fill="none" xmlns="http://www.w3.org/2000/svg">
<g id="logos:whatsapp-icon">
<path id="Vector" d="M0.925634 15.8086C0.92489 18.4972 1.6274 21.1224 2.96322 23.4363L0.797882 31.3423L8.88867 29.2209C11.1265 30.4391 13.6338 31.0775 16.1817 31.0776H16.1884C24.5996 31.0776 31.4464 24.2332 31.45 15.8206C31.4516 11.7441 29.8655 7.91076 26.9838 5.02679C24.1026 2.14307 20.2706 0.554107 16.1878 0.552246C7.77562 0.552246 0.929231 7.39628 0.925758 15.8086" fill="url(#paint0_linear_47_116)"/>
<path id="Vector_2" d="M0.38076 15.8035C0.379892 18.5889 1.10758 21.308 2.49102 23.7048L0.248047 31.8942L8.62895 29.6967C10.9382 30.9558 13.5381 31.6196 16.1837 31.6206H16.1905C24.9034 31.6206 31.9963 24.53 32 15.8162C32.0015 11.5932 30.3583 7.62208 27.3736 4.63479C24.3886 1.64788 20.4196 0.00173643 16.1905 0C7.47608 0 0.384233 7.08961 0.38076 15.8035ZM5.37177 23.292L5.05884 22.7953C3.74336 20.7036 3.04904 18.2865 3.05003 15.8045C3.05288 8.56174 8.94733 2.66915 16.1955 2.66915C19.7055 2.67064 23.0043 4.03895 25.4854 6.52155C27.9664 9.0044 29.3316 12.3049 29.3307 15.8152C29.3275 23.058 23.4329 28.9513 16.1905 28.9513H16.1853C13.8271 28.9501 11.5143 28.3168 9.49729 27.12L9.01729 26.8353L4.04389 28.1393L5.37177 23.2919V23.292Z" fill="url(#paint1_linear_47_116)"/>
<path id="Vector_3" d="M12.2391 9.19662C11.9432 8.53888 11.6317 8.52561 11.3503 8.51407C11.1199 8.50415 10.8564 8.5049 10.5932 8.5049C10.3298 8.5049 9.90175 8.604 9.53995 8.99904C9.17778 9.39445 8.15726 10.35 8.15726 12.2934C8.15726 14.237 9.57282 16.1152 9.77016 16.379C9.96774 16.6423 12.5029 20.7582 16.5181 22.3415C19.855 23.6574 20.5341 23.3957 21.2583 23.3297C21.9826 23.264 23.5955 22.3744 23.9246 21.452C24.2539 20.5297 24.2539 19.7391 24.1551 19.5739C24.0564 19.4093 23.793 19.3105 23.3979 19.113C23.0028 18.9154 21.0607 17.9598 20.6987 17.8279C20.3365 17.6962 20.0732 17.6305 19.8097 18.026C19.5463 18.4209 18.7898 19.3105 18.5592 19.5739C18.3289 19.838 18.0983 19.8708 17.7034 19.6733C17.3081 19.4751 16.036 19.0584 14.5266 17.7128C13.3523 16.6658 12.5595 15.3727 12.329 14.9772C12.0986 14.5823 12.3044 14.3682 12.5024 14.1714C12.6799 13.9944 12.8976 13.7101 13.0953 13.4795C13.2923 13.2488 13.358 13.0842 13.4897 12.8208C13.6216 12.5571 13.5556 12.3264 13.457 12.1288C13.358 11.9313 12.5904 9.97764 12.2391 9.19662Z" fill="white"/>
</g>
<defs>
<linearGradient id="paint0_linear_47_116" x1="1533.41" y1="3079.56" x2="1533.41" y2="0.552246" gradientUnits="userSpaceOnUse">
<stop stop-color="#1FAF38"/>
<stop offset="1" stop-color="#60D669"/>
</linearGradient>
<linearGradient id="paint1_linear_47_116" x1="1587.84" y1="3189.42" x2="1587.84" y2="0" gradientUnits="userSpaceOnUse">
<stop stop-color="#F9F9F9"/>
<stop offset="1" stop-color="white"/>
</linearGradient>
</defs>
</svg>
