<svg width="114" height="24" viewBox="0 0 114 24" fill="none" xmlns="http://www.w3.org/2000/svg">
<path d="M3.6 12.256V10.184H6.764C7.30533 10.184 7.76267 10.1 8.136 9.932C8.528 9.764 8.82667 9.53067 9.032 9.232C9.23733 8.91467 9.34 8.532 9.34 8.084C9.34 7.412 9.116 6.908 8.668 6.572C8.22 6.236 7.58533 6.068 6.764 6.068H4.804V18.332H7.212C7.828 18.332 8.37867 18.2573 8.864 18.108C9.34933 17.94 9.732 17.6787 10.012 17.324C10.3107 16.9507 10.46 16.4467 10.46 15.812C10.46 15.4013 10.376 15.0467 10.208 14.748C10.04 14.4493 9.80667 14.2067 9.508 14.02C9.20933 13.8333 8.864 13.7027 8.472 13.628C8.09867 13.5347 7.67867 13.488 7.212 13.488H3.6V10.912H7.744C8.696 10.912 9.62 11.0147 10.516 11.22C11.412 11.4253 12.224 11.7613 12.952 12.228C13.68 12.676 14.2587 13.2547 14.688 13.964C15.136 14.6547 15.36 15.4947 15.36 16.484C15.36 17.7907 15.0427 18.8453 14.408 19.648C13.792 20.4507 12.9147 21.048 11.776 21.44C10.6373 21.8133 9.29333 22 7.744 22H0.072V2.4H7.268C8.63067 2.4 9.82533 2.58667 10.852 2.96C11.8973 3.31467 12.7187 3.86533 13.316 4.612C13.932 5.34 14.24 6.264 14.24 7.384C14.24 8.41067 13.932 9.288 13.316 10.016C12.7187 10.744 11.8973 11.304 10.852 11.696C9.82533 12.0693 8.63067 12.256 7.268 12.256H3.6ZM22.5018 0.159999V22H18.2458V0.159999H22.5018ZM26.6178 14.16C26.6178 13.3947 26.4778 12.8067 26.1978 12.396C25.9178 11.9853 25.4324 11.78 24.7418 11.78C24.2938 11.78 23.9018 11.8827 23.5658 12.088C23.2298 12.2747 22.9684 12.5453 22.7818 12.9C22.5951 13.236 22.5018 13.656 22.5018 14.16H21.7738C21.7738 13.1333 21.9418 12.2093 22.2778 11.388C22.6138 10.548 23.1178 9.88533 23.7897 9.4C24.4804 8.896 25.3578 8.644 26.4218 8.644C27.4858 8.644 28.3351 8.83067 28.9698 9.204C29.6231 9.57733 30.0991 10.128 30.3978 10.856C30.6964 11.584 30.8458 12.48 30.8458 13.544V22H26.6178V14.16ZM37.4632 17.968C37.4632 18.304 37.5472 18.5933 37.7152 18.836C37.8832 19.06 38.1072 19.2373 38.3872 19.368C38.6672 19.48 38.9752 19.536 39.3112 19.536C39.7965 19.536 40.2445 19.4333 40.6552 19.228C41.0658 19.0227 41.4018 18.7147 41.6632 18.304C41.9245 17.8933 42.0552 17.3893 42.0552 16.792L42.5032 18.472C42.5032 19.2933 42.2792 19.9933 41.8312 20.572C41.3832 21.132 40.8045 21.5613 40.0952 21.86C39.3858 22.14 38.6205 22.28 37.7992 22.28C36.9778 22.28 36.2125 22.1307 35.5032 21.832C34.8125 21.5147 34.2525 21.048 33.8232 20.432C33.4125 19.816 33.2072 19.0693 33.2072 18.192C33.2072 16.96 33.6458 15.9893 34.5232 15.28C35.4005 14.552 36.6418 14.188 38.2472 14.188C39.0312 14.188 39.7312 14.2627 40.3472 14.412C40.9818 14.5613 41.5232 14.748 41.9712 14.972C42.4192 15.196 42.7552 15.4293 42.9792 15.672V17.548C42.5312 17.212 42.0085 16.96 41.4112 16.792C40.8325 16.6053 40.2165 16.512 39.5632 16.512C39.0592 16.512 38.6578 16.568 38.3592 16.68C38.0605 16.792 37.8365 16.96 37.6872 17.184C37.5378 17.3893 37.4632 17.6507 37.4632 17.968ZM35.5872 13.068L34.1592 10.24C34.8872 9.88533 35.7645 9.54933 36.7912 9.232C37.8178 8.91467 38.9378 8.756 40.1512 8.756C41.2898 8.756 42.3072 8.924 43.2032 9.26C44.0992 9.57733 44.8085 10.044 45.3312 10.66C45.8538 11.276 46.1152 12.032 46.1152 12.928V22H42.0552V13.88C42.0552 13.5627 41.9992 13.292 41.8872 13.068C41.7938 12.8253 41.6445 12.62 41.4392 12.452C41.2338 12.284 40.9725 12.1627 40.6552 12.088C40.3565 12.0133 40.0112 11.976 39.6192 11.976C39.0405 11.976 38.4712 12.0413 37.9112 12.172C37.3698 12.3027 36.8938 12.4613 36.4832 12.648C36.0725 12.816 35.7738 12.956 35.5872 13.068ZM47.4082 9.12H51.9162L54.8842 16.26L57.8242 9.12H62.3322L54.8842 23.512L47.4082 9.12ZM70.0517 22.28C68.5583 22.28 67.261 22.0093 66.1597 21.468C65.077 20.908 64.237 20.124 63.6397 19.116C63.0423 18.108 62.7437 16.9227 62.7437 15.56C62.7437 14.1787 63.033 12.984 63.6117 11.976C64.1903 10.968 65.021 10.1933 66.1037 9.652C67.205 9.11067 68.5023 8.84 69.9957 8.84C71.489 8.84 72.749 9.10133 73.7757 9.624C74.8023 10.128 75.5863 10.8653 76.1277 11.836C76.669 12.8067 76.9397 13.9827 76.9397 15.364C76.9397 15.5693 76.9397 15.7747 76.9397 15.98C76.9397 16.1667 76.921 16.3253 76.8837 16.456H65.1237V14.104H73.0757L72.0677 15.392C72.161 15.2613 72.2357 15.1027 72.2917 14.916C72.3663 14.7107 72.4037 14.5427 72.4037 14.412C72.4037 13.852 72.301 13.3667 72.0957 12.956C71.8903 12.5453 71.601 12.228 71.2277 12.004C70.8543 11.78 70.4157 11.668 69.9117 11.668C69.277 11.668 68.745 11.808 68.3157 12.088C67.8863 12.368 67.5597 12.7973 67.3357 13.376C67.1303 13.936 67.0183 14.6453 66.9997 15.504C66.9997 16.288 67.1117 16.96 67.3357 17.52C67.5597 18.08 67.8957 18.5093 68.3437 18.808C68.7917 19.088 69.3423 19.228 69.9957 19.228C70.7423 19.228 71.377 19.088 71.8997 18.808C72.441 18.528 72.8703 18.108 73.1877 17.548L76.9677 18.472C76.2957 19.7413 75.381 20.6933 74.2237 21.328C73.085 21.9627 71.6943 22.28 70.0517 22.28ZM80.2504 17.324C80.9038 17.8653 81.4918 18.2947 82.0144 18.612C82.5558 18.9107 83.0318 19.1253 83.4424 19.256C83.8531 19.368 84.2078 19.424 84.5064 19.424C84.9358 19.424 85.2531 19.3307 85.4584 19.144C85.6638 18.9573 85.7664 18.7147 85.7664 18.416C85.7664 18.136 85.6824 17.9027 85.5144 17.716C85.3464 17.5107 85.0571 17.3147 84.6464 17.128C84.2544 16.9413 83.7131 16.7453 83.0224 16.54C82.4064 16.316 81.8184 16.0547 81.2584 15.756C80.7171 15.4387 80.2691 15.0187 79.9144 14.496C79.5598 13.9733 79.3824 13.3013 79.3824 12.48C79.3824 11.696 79.5878 11.0333 79.9984 10.492C80.4278 9.95067 80.9971 9.54 81.7064 9.26C82.4344 8.98 83.2651 8.84 84.1984 8.84C84.9451 8.84 85.6358 8.924 86.2704 9.092C86.9238 9.26 87.5304 9.484 88.0904 9.764C88.6691 10.044 89.2104 10.3707 89.7144 10.744L88.2024 13.488C87.6611 12.984 87.0451 12.5733 86.3544 12.256C85.6638 11.92 85.0291 11.752 84.4504 11.752C84.0584 11.752 83.7598 11.8267 83.5544 11.976C83.3678 12.1253 83.2744 12.3213 83.2744 12.564C83.2744 12.844 83.3864 13.0773 83.6104 13.264C83.8531 13.4507 84.1891 13.628 84.6184 13.796C85.0664 13.9453 85.6078 14.1413 86.2424 14.384C86.9144 14.6267 87.5304 14.9067 88.0904 15.224C88.6691 15.5413 89.1264 15.9427 89.4624 16.428C89.8171 16.9133 89.9944 17.5573 89.9944 18.36C89.9944 19.7413 89.5651 20.7867 88.7064 21.496C87.8664 22.1867 86.6811 22.532 85.1504 22.532C84.2171 22.532 83.3491 22.42 82.5464 22.196C81.7624 21.9907 81.0344 21.7107 80.3624 21.356C79.6904 20.9827 79.0651 20.572 78.4864 20.124L80.2504 17.324ZM96.576 0.159999V22H92.32V0.159999H96.576ZM100.692 14.16C100.692 13.3947 100.552 12.8067 100.272 12.396C99.992 11.9853 99.5066 11.78 98.816 11.78C98.368 11.78 97.976 11.8827 97.64 12.088C97.304 12.2747 97.0426 12.5453 96.856 12.9C96.6693 13.236 96.576 13.656 96.576 14.16H95.848C95.848 13.1333 96.016 12.2093 96.352 11.388C96.688 10.548 97.192 9.88533 97.864 9.4C98.5546 8.896 99.432 8.644 100.496 8.644C101.56 8.644 102.409 8.83067 103.044 9.204C103.697 9.57733 104.173 10.128 104.472 10.856C104.771 11.584 104.92 12.48 104.92 13.544V22H100.692V14.16Z" fill="black"/>
<path d="M108.485 20.096C108.485 19.3867 108.737 18.78 109.241 18.276C109.745 17.772 110.371 17.52 111.117 17.52C111.901 17.52 112.536 17.772 113.021 18.276C113.507 18.78 113.749 19.3867 113.749 20.096C113.749 20.8053 113.507 21.412 113.021 21.916C112.536 22.42 111.901 22.672 111.117 22.672C110.371 22.672 109.745 22.42 109.241 21.916C108.737 21.412 108.485 20.8053 108.485 20.096Z" fill="url(#paint0_linear_129_91)"/>
<defs>
<linearGradient id="paint0_linear_129_91" x1="11.502" y1="-6.10057" x2="127.484" y2="17.5583" gradientUnits="userSpaceOnUse">
<stop stop-color="#FFB800"/>
<stop offset="0.296875" stop-color="#FFC081"/>
<stop offset="0.651042" stop-color="#FABAD7"/>
<stop offset="1" stop-color="#288AFF"/>
</linearGradient>
</defs>
</svg>
