<svg width="139" height="70" viewBox="0 0 139 70" fill="none" xmlns="http://www.w3.org/2000/svg">
<path d="M9.168 14.06V51.5H2.928V14.06H9.168ZM27.312 40.46C27.312 42.892 26.816 44.972 25.824 46.7C24.832 48.428 23.52 49.74 21.888 50.636C20.288 51.532 18.56 51.98 16.704 51.98C14.88 51.98 13.248 51.516 11.808 50.588C10.4 49.66 9.28 48.332 8.448 46.604C7.616 44.876 7.2 42.828 7.2 40.46C7.2 38.06 7.616 36.012 8.448 34.316C9.28 32.588 10.4 31.26 11.808 30.332C13.248 29.404 14.88 28.94 16.704 28.94C18.56 28.94 20.288 29.388 21.888 30.284C23.52 31.18 24.832 32.492 25.824 34.22C26.816 35.916 27.312 37.996 27.312 40.46ZM20.88 40.46C20.88 39.148 20.608 38.012 20.064 37.052C19.52 36.092 18.784 35.356 17.856 34.844C16.96 34.332 15.968 34.076 14.88 34.076C13.952 34.076 13.04 34.332 12.144 34.844C11.28 35.324 10.56 36.044 9.984 37.004C9.44 37.964 9.168 39.116 9.168 40.46C9.168 41.804 9.44 42.956 9.984 43.916C10.56 44.876 11.28 45.612 12.144 46.124C13.04 46.604 13.952 46.844 14.88 46.844C15.968 46.844 16.96 46.588 17.856 46.076C18.784 45.564 19.52 44.828 20.064 43.868C20.608 42.908 20.88 41.772 20.88 40.46ZM36.651 40.46C36.651 41.74 36.939 42.86 37.515 43.82C38.091 44.78 38.859 45.532 39.819 46.076C40.811 46.62 41.899 46.892 43.083 46.892C44.043 46.892 44.971 46.748 45.867 46.46C46.763 46.14 47.563 45.724 48.267 45.212C49.003 44.668 49.563 44.044 49.947 43.34V49.724C49.179 50.428 48.171 50.988 46.923 51.404C45.707 51.788 44.283 51.98 42.651 51.98C40.315 51.98 38.203 51.5 36.315 50.54C34.459 49.58 32.987 48.236 31.899 46.508C30.843 44.748 30.315 42.732 30.315 40.46C30.315 38.156 30.843 36.14 31.899 34.412C32.987 32.684 34.459 31.34 36.315 30.38C38.203 29.42 40.315 28.94 42.651 28.94C44.283 28.94 45.707 29.148 46.923 29.564C48.171 29.948 49.179 30.476 49.947 31.148V37.532C49.563 36.828 48.987 36.22 48.219 35.708C47.483 35.164 46.667 34.748 45.771 34.46C44.875 34.172 43.979 34.028 43.083 34.028C41.899 34.028 40.811 34.316 39.819 34.892C38.859 35.436 38.091 36.188 37.515 37.148C36.939 38.108 36.651 39.212 36.651 40.46ZM63.0634 33.5C62.3914 32.732 61.6874 31.932 60.9514 31.1C60.2154 30.268 59.5754 29.372 59.0314 28.412C58.5194 27.452 58.2634 26.396 58.2634 25.244C58.2634 23.804 58.6634 22.476 59.4634 21.26C60.2634 20.012 61.3834 19.02 62.8234 18.284C64.2634 17.548 65.9754 17.18 67.9594 17.18C69.9114 17.18 71.5754 17.564 72.9514 18.332C74.3274 19.1 75.3674 20.092 76.0714 21.308C76.7754 22.492 77.1274 23.756 77.1274 25.1C77.1274 26.124 76.9514 27.036 76.5994 27.836C76.2474 28.636 75.7354 29.404 75.0634 30.14C74.3914 30.876 73.5754 31.596 72.6154 32.3C71.6554 33.004 70.5354 33.772 69.2554 34.604C68.3914 35.148 67.4634 35.66 66.4714 36.14C65.5114 36.588 64.5994 37.068 63.7354 37.58C62.8714 38.092 62.1674 38.7 61.6234 39.404C61.0794 40.108 60.8074 40.988 60.8074 42.044C60.8074 42.94 61.0314 43.756 61.4794 44.492C61.9594 45.196 62.6154 45.756 63.4474 46.172C64.3114 46.556 65.3194 46.748 66.4714 46.748C67.8794 46.748 69.2554 46.46 70.5994 45.884C71.9754 45.276 73.2874 44.46 74.5354 43.436C75.8154 42.38 77.0314 41.18 78.1834 39.836C79.3354 38.46 80.4234 37.02 81.4474 35.516L85.7194 38.636C84.5994 40.204 83.3514 41.788 81.9754 43.388C80.6314 44.988 79.1274 46.444 77.4634 47.756C75.8314 49.036 74.0394 50.076 72.0874 50.876C70.1354 51.676 68.0074 52.076 65.7034 52.076C63.6554 52.076 61.7674 51.692 60.0394 50.924C58.3114 50.156 56.9194 49.068 55.8634 47.66C54.8074 46.22 54.2794 44.524 54.2794 42.572C54.2794 41.068 54.5674 39.772 55.1434 38.684C55.7194 37.596 56.4554 36.668 57.3514 35.9C58.2474 35.1 59.2234 34.428 60.2794 33.884C61.3354 33.34 62.3434 32.876 63.3034 32.492C64.2954 32.076 65.1274 31.708 65.7994 31.388C67.5914 30.46 68.9674 29.5 69.9274 28.508C70.8874 27.484 71.3674 26.508 71.3674 25.58C71.3674 24.972 71.2234 24.412 70.9354 23.9C70.6794 23.388 70.2954 22.988 69.7834 22.7C69.2714 22.38 68.6474 22.22 67.9114 22.22C66.7594 22.22 65.8794 22.556 65.2714 23.228C64.6634 23.868 64.3594 24.636 64.3594 25.532C64.3594 26.524 64.7754 27.516 65.6074 28.508C66.4714 29.468 67.4954 30.604 68.6794 31.916L86.4394 51.5H79.2874L63.0634 33.5ZM95.0573 40.46C95.0573 41.74 95.3453 42.86 95.9213 43.82C96.4973 44.78 97.2653 45.532 98.2253 46.076C99.2173 46.62 100.305 46.892 101.489 46.892C102.449 46.892 103.377 46.748 104.273 46.46C105.169 46.14 105.969 45.724 106.673 45.212C107.409 44.668 107.969 44.044 108.353 43.34V49.724C107.585 50.428 106.577 50.988 105.329 51.404C104.113 51.788 102.689 51.98 101.057 51.98C98.7213 51.98 96.6093 51.5 94.7213 50.54C92.8653 49.58 91.3933 48.236 90.3053 46.508C89.2493 44.748 88.7213 42.732 88.7213 40.46C88.7213 38.156 89.2493 36.14 90.3053 34.412C91.3933 32.684 92.8653 31.34 94.7213 30.38C96.6093 29.42 98.7213 28.94 101.057 28.94C102.689 28.94 104.113 29.148 105.329 29.564C106.577 29.948 107.585 30.476 108.353 31.148V37.532C107.969 36.828 107.393 36.22 106.625 35.708C105.889 35.164 105.073 34.748 104.177 34.46C103.281 34.172 102.385 34.028 101.489 34.028C100.305 34.028 99.2173 34.316 98.2253 34.892C97.2653 35.436 96.4973 36.188 95.9213 37.148C95.3453 38.108 95.0573 39.212 95.0573 40.46ZM112.35 40.46C112.35 38.156 112.878 36.14 113.934 34.412C115.022 32.684 116.478 31.34 118.302 30.38C120.158 29.42 122.254 28.94 124.59 28.94C126.926 28.94 129.006 29.42 130.83 30.38C132.686 31.34 134.142 32.684 135.198 34.412C136.286 36.14 136.83 38.156 136.83 40.46C136.83 42.732 136.286 44.748 135.198 46.508C134.142 48.236 132.686 49.58 130.83 50.54C129.006 51.5 126.926 51.98 124.59 51.98C122.254 51.98 120.158 51.5 118.302 50.54C116.478 49.58 115.022 48.236 113.934 46.508C112.878 44.748 112.35 42.732 112.35 40.46ZM118.686 40.46C118.686 41.708 118.942 42.812 119.454 43.772C119.998 44.7 120.718 45.436 121.614 45.98C122.51 46.492 123.502 46.748 124.59 46.748C125.678 46.748 126.67 46.492 127.566 45.98C128.462 45.436 129.166 44.7 129.678 43.772C130.222 42.812 130.494 41.708 130.494 40.46C130.494 39.212 130.222 38.108 129.678 37.148C129.166 36.188 128.462 35.452 127.566 34.94C126.67 34.428 125.678 34.172 124.59 34.172C123.502 34.172 122.51 34.428 121.614 34.94C120.718 35.452 119.998 36.188 119.454 37.148C118.942 38.108 118.686 39.212 118.686 40.46Z" fill="black"/>
<path d="M29.0184 62C29.0184 62.46 29.1217 62.8633 29.3284 63.21C29.5417 63.55 29.8184 63.8133 30.1584 64C30.4984 64.18 30.8684 64.27 31.2684 64.27C31.6017 64.27 31.8984 64.2267 32.1584 64.14C32.4184 64.0533 32.6517 63.9367 32.8584 63.79C33.0717 63.6433 33.2551 63.4833 33.4084 63.31V64.92C33.1217 65.1467 32.8084 65.3233 32.4684 65.45C32.1351 65.5767 31.7117 65.64 31.1984 65.64C30.6651 65.64 30.1684 65.5533 29.7084 65.38C29.2551 65.2067 28.8584 64.9567 28.5184 64.63C28.1851 64.3033 27.9251 63.92 27.7384 63.48C27.5584 63.0333 27.4684 62.54 27.4684 62C27.4684 61.46 27.5584 60.97 27.7384 60.53C27.9251 60.0833 28.1851 59.6967 28.5184 59.37C28.8584 59.0433 29.2551 58.7933 29.7084 58.62C30.1684 58.4467 30.6651 58.36 31.1984 58.36C31.7117 58.36 32.1351 58.4233 32.4684 58.55C32.8084 58.6767 33.1217 58.8533 33.4084 59.08V60.69C33.2551 60.5167 33.0717 60.3567 32.8584 60.21C32.6517 60.0633 32.4184 59.9467 32.1584 59.86C31.8984 59.7733 31.6017 59.73 31.2684 59.73C30.8684 59.73 30.4984 59.8233 30.1584 60.01C29.8184 60.19 29.5417 60.45 29.3284 60.79C29.1217 61.13 29.0184 61.5333 29.0184 62ZM35.4013 63.2C35.4013 62.72 35.5113 62.3 35.7313 61.94C35.958 61.58 36.2613 61.3 36.6413 61.1C37.028 60.9 37.4646 60.8 37.9513 60.8C38.438 60.8 38.8713 60.9 39.2513 61.1C39.638 61.3 39.9413 61.58 40.1613 61.94C40.388 62.3 40.5013 62.72 40.5013 63.2C40.5013 63.6733 40.388 64.0933 40.1613 64.46C39.9413 64.82 39.638 65.1 39.2513 65.3C38.8713 65.5 38.438 65.6 37.9513 65.6C37.4646 65.6 37.028 65.5 36.6413 65.3C36.2613 65.1 35.958 64.82 35.7313 64.46C35.5113 64.0933 35.4013 63.6733 35.4013 63.2ZM36.7213 63.2C36.7213 63.46 36.7746 63.69 36.8813 63.89C36.9946 64.0833 37.1446 64.2367 37.3313 64.35C37.518 64.4567 37.7246 64.51 37.9513 64.51C38.178 64.51 38.3846 64.4567 38.5713 64.35C38.758 64.2367 38.9046 64.0833 39.0113 63.89C39.1246 63.69 39.1813 63.46 39.1813 63.2C39.1813 62.94 39.1246 62.71 39.0113 62.51C38.9046 62.31 38.758 62.1567 38.5713 62.05C38.3846 61.9433 38.178 61.89 37.9513 61.89C37.7246 61.89 37.518 61.9433 37.3313 62.05C37.1446 62.1567 36.9946 62.31 36.8813 62.51C36.7746 62.71 36.7213 62.94 36.7213 63.2ZM42.163 63.2C42.163 62.72 42.273 62.3 42.493 61.94C42.7197 61.58 43.023 61.3 43.403 61.1C43.7897 60.9 44.2263 60.8 44.713 60.8C45.1997 60.8 45.633 60.9 46.013 61.1C46.3997 61.3 46.703 61.58 46.923 61.94C47.1497 62.3 47.263 62.72 47.263 63.2C47.263 63.6733 47.1497 64.0933 46.923 64.46C46.703 64.82 46.3997 65.1 46.013 65.3C45.633 65.5 45.1997 65.6 44.713 65.6C44.2263 65.6 43.7897 65.5 43.403 65.3C43.023 65.1 42.7197 64.82 42.493 64.46C42.273 64.0933 42.163 63.6733 42.163 63.2ZM43.483 63.2C43.483 63.46 43.5363 63.69 43.643 63.89C43.7563 64.0833 43.9063 64.2367 44.093 64.35C44.2797 64.4567 44.4863 64.51 44.713 64.51C44.9397 64.51 45.1463 64.4567 45.333 64.35C45.5197 64.2367 45.6663 64.0833 45.773 63.89C45.8863 63.69 45.943 63.46 45.943 63.2C45.943 62.94 45.8863 62.71 45.773 62.51C45.6663 62.31 45.5197 62.1567 45.333 62.05C45.1463 61.9433 44.9397 61.89 44.713 61.89C44.4863 61.89 44.2797 61.9433 44.093 62.05C43.9063 62.1567 43.7563 62.31 43.643 62.51C43.5363 62.71 43.483 62.94 43.483 63.2ZM49.2347 57.7H50.5347V65.5H49.2347V57.7ZM57.5409 63.15C57.6876 63.41 57.8476 63.6367 58.0209 63.83C58.2009 64.0233 58.3976 64.1733 58.6109 64.28C58.8242 64.3867 59.0542 64.44 59.3009 64.44C59.5876 64.44 59.8209 64.3667 60.0009 64.22C60.1809 64.0733 60.2709 63.8733 60.2709 63.62C60.2709 63.4 60.2142 63.2233 60.1009 63.09C59.9942 62.9567 59.8309 62.84 59.6109 62.74C59.3976 62.6333 59.1342 62.52 58.8209 62.4C58.6542 62.34 58.4609 62.26 58.2409 62.16C58.0276 62.0533 57.8242 61.92 57.6309 61.76C57.4376 61.5933 57.2776 61.3933 57.1509 61.16C57.0242 60.92 56.9609 60.6333 56.9609 60.3C56.9609 59.9 57.0609 59.5567 57.2609 59.27C57.4676 58.9767 57.7442 58.7533 58.0909 58.6C58.4442 58.44 58.8376 58.36 59.2709 58.36C59.7176 58.36 60.1009 58.4367 60.4209 58.59C60.7476 58.7367 61.0176 58.9267 61.2309 59.16C61.4509 59.3867 61.6209 59.6233 61.7409 59.87L60.6209 60.49C60.5276 60.3233 60.4142 60.1733 60.2809 60.04C60.1542 59.9 60.0076 59.79 59.8409 59.71C59.6742 59.6233 59.4842 59.58 59.2709 59.58C58.9909 59.58 58.7809 59.6467 58.6409 59.78C58.5009 59.9067 58.4309 60.0567 58.4309 60.23C58.4309 60.4033 58.4876 60.5567 58.6009 60.69C58.7142 60.8167 58.8876 60.94 59.1209 61.06C59.3542 61.1733 59.6476 61.29 60.0009 61.41C60.2276 61.49 60.4442 61.59 60.6509 61.71C60.8642 61.83 61.0542 61.9767 61.2209 62.15C61.3942 62.3167 61.5276 62.5167 61.6209 62.75C61.7209 62.9767 61.7709 63.24 61.7709 63.54C61.7709 63.88 61.7042 64.1833 61.5709 64.45C61.4376 64.7167 61.2542 64.9433 61.0209 65.13C60.7876 65.31 60.5242 65.4467 60.2309 65.54C59.9442 65.64 59.6409 65.69 59.3209 65.69C58.8942 65.69 58.4942 65.61 58.1209 65.45C57.7542 65.2833 57.4342 65.06 57.1609 64.78C56.8876 64.5 56.6742 64.1967 56.5209 63.87L57.5409 63.15ZM63.7568 59.12C63.7568 58.9067 63.8334 58.7333 63.9868 58.6C64.1401 58.46 64.3234 58.39 64.5368 58.39C64.7501 58.39 64.9301 58.46 65.0768 58.6C65.2301 58.7333 65.3068 58.9067 65.3068 59.12C65.3068 59.3267 65.2301 59.5 65.0768 59.64C64.9301 59.78 64.7501 59.85 64.5368 59.85C64.3234 59.85 64.1401 59.78 63.9868 59.64C63.8334 59.5 63.7568 59.3267 63.7568 59.12ZM63.8968 60.9H65.1568V65.5H63.8968V60.9ZM66.9416 60.9H69.7816V61.99H66.9416V60.9ZM67.7316 59.3H68.9816V65.5H67.7316V59.3ZM73.6411 65.6C73.1411 65.6 72.7044 65.5 72.3311 65.3C71.9577 65.1 71.6677 64.8233 71.4611 64.47C71.2611 64.11 71.1611 63.6867 71.1611 63.2C71.1611 62.7067 71.2611 62.2833 71.4611 61.93C71.6677 61.57 71.9577 61.2933 72.3311 61.1C72.7044 60.9 73.1444 60.8 73.6511 60.8C74.1577 60.8 74.5877 60.8933 74.9411 61.08C75.3011 61.26 75.5744 61.5267 75.7611 61.88C75.9477 62.2267 76.0411 62.6467 76.0411 63.14C76.0411 63.2 76.0377 63.2633 76.0311 63.33C76.0311 63.3967 76.0277 63.45 76.0211 63.49H71.9011V62.69H74.8911L74.5411 63.15C74.5677 63.11 74.5911 63.0567 74.6111 62.99C74.6377 62.9167 74.6511 62.8567 74.6511 62.81C74.6511 62.5833 74.6077 62.39 74.5211 62.23C74.4411 62.07 74.3244 61.9433 74.1711 61.85C74.0177 61.7567 73.8377 61.71 73.6311 61.71C73.3777 61.71 73.1644 61.7667 72.9911 61.88C72.8244 61.9867 72.6944 62.15 72.6011 62.37C72.5144 62.5833 72.4677 62.85 72.4611 63.17C72.4611 63.4767 72.5044 63.7367 72.5911 63.95C72.6844 64.1633 72.8211 64.3267 73.0011 64.44C73.1811 64.5533 73.3977 64.61 73.6511 64.61C73.9377 64.61 74.1811 64.5567 74.3811 64.45C74.5877 64.3367 74.7577 64.17 74.8911 63.95L76.0211 64.3C75.7811 64.7333 75.4611 65.06 75.0611 65.28C74.6677 65.4933 74.1944 65.6 73.6411 65.6ZM78.2479 63.91C78.4413 64.09 78.6213 64.2367 78.7879 64.35C78.9546 64.4567 79.1113 64.5367 79.2579 64.59C79.4113 64.6433 79.5546 64.67 79.6879 64.67C79.8613 64.67 79.9946 64.6333 80.0879 64.56C80.1813 64.48 80.2279 64.3733 80.2279 64.24C80.2279 64.12 80.1879 64.02 80.1079 63.94C80.0346 63.8533 79.9246 63.7767 79.7779 63.71C79.6313 63.6433 79.4446 63.5733 79.2179 63.5C79.0046 63.42 78.7979 63.3267 78.5979 63.22C78.3979 63.1067 78.2313 62.96 78.0979 62.78C77.9713 62.5933 77.9079 62.3567 77.9079 62.07C77.9079 61.7967 77.9813 61.5667 78.1279 61.38C78.2746 61.1867 78.4713 61.0433 78.7179 60.95C78.9713 60.85 79.2513 60.8 79.5579 60.8C79.8179 60.8 80.0613 60.8333 80.2879 60.9C80.5146 60.9667 80.7246 61.0567 80.9179 61.17C81.1113 61.2767 81.2813 61.4033 81.4279 61.55L80.8579 62.35C80.6913 62.17 80.4913 62.0233 80.2579 61.91C80.0313 61.7967 79.8079 61.74 79.5879 61.74C79.4413 61.74 79.3246 61.77 79.2379 61.83C79.1579 61.8833 79.1179 61.9667 79.1179 62.08C79.1179 62.18 79.1579 62.27 79.2379 62.35C79.3246 62.4233 79.4446 62.49 79.5979 62.55C79.7579 62.61 79.9379 62.6833 80.1379 62.77C80.3846 62.8633 80.6113 62.97 80.8179 63.09C81.0313 63.2033 81.2013 63.3467 81.3279 63.52C81.4546 63.6933 81.5179 63.92 81.5179 64.2C81.5179 64.66 81.3679 65.02 81.0679 65.28C80.7679 65.5333 80.3546 65.66 79.8279 65.66C79.5013 65.66 79.2013 65.6167 78.9279 65.53C78.6613 65.4433 78.4179 65.33 78.1979 65.19C77.9846 65.0433 77.7913 64.8867 77.6179 64.72L78.2479 63.91ZM87.5305 58.5H88.9905V65.5H87.5305V58.5ZM89.9105 65.5H88.4505V64.2H89.8605C90.1672 64.2 90.4572 64.16 90.7305 64.08C91.0038 63.9933 91.2438 63.86 91.4505 63.68C91.6572 63.5 91.8172 63.2733 91.9305 63C92.0505 62.72 92.1105 62.3867 92.1105 62C92.1105 61.6133 92.0505 61.2833 91.9305 61.01C91.8172 60.73 91.6572 60.5 91.4505 60.32C91.2438 60.14 91.0038 60.01 90.7305 59.93C90.4572 59.8433 90.1672 59.8 89.8605 59.8H88.4505V58.5H89.9105C90.6438 58.5 91.2838 58.6433 91.8305 58.93C92.3838 59.2167 92.8138 59.6233 93.1205 60.15C93.4272 60.67 93.5805 61.2867 93.5805 62C93.5805 62.7133 93.4272 63.3333 93.1205 63.86C92.8138 64.38 92.3838 64.7833 91.8305 65.07C91.2838 65.3567 90.6438 65.5 89.9105 65.5ZM97.7387 65.6C97.2387 65.6 96.802 65.5 96.4287 65.3C96.0554 65.1 95.7654 64.8233 95.5587 64.47C95.3587 64.11 95.2587 63.6867 95.2587 63.2C95.2587 62.7067 95.3587 62.2833 95.5587 61.93C95.7654 61.57 96.0554 61.2933 96.4287 61.1C96.802 60.9 97.242 60.8 97.7487 60.8C98.2554 60.8 98.6854 60.8933 99.0387 61.08C99.3987 61.26 99.672 61.5267 99.8587 61.88C100.045 62.2267 100.139 62.6467 100.139 63.14C100.139 63.2 100.135 63.2633 100.129 63.33C100.129 63.3967 100.125 63.45 100.119 63.49L95.9987 63.49V62.69H98.9887L98.6387 63.15C98.6654 63.11 98.6887 63.0567 98.7087 62.99C98.7354 62.9167 98.7487 62.8567 98.7487 62.81C98.7487 62.5833 98.7054 62.39 98.6187 62.23C98.5387 62.07 98.422 61.9433 98.2687 61.85C98.1154 61.7567 97.9354 61.71 97.7287 61.71C97.4754 61.71 97.262 61.7667 97.0887 61.88C96.922 61.9867 96.792 62.15 96.6987 62.37C96.612 62.5833 96.5654 62.85 96.5587 63.17C96.5587 63.4767 96.602 63.7367 96.6887 63.95C96.782 64.1633 96.9187 64.3267 97.0987 64.44C97.2787 64.5533 97.4954 64.61 97.7487 64.61C98.0354 64.61 98.2787 64.5567 98.4787 64.45C98.6854 64.3367 98.8554 64.17 98.9887 63.95L100.119 64.3C99.8787 64.7333 99.5587 65.06 99.1587 65.28C98.7654 65.4933 98.292 65.6 97.7387 65.6ZM102.346 63.91C102.539 64.09 102.719 64.2367 102.886 64.35C103.052 64.4567 103.209 64.5367 103.356 64.59C103.509 64.6433 103.652 64.67 103.786 64.67C103.959 64.67 104.092 64.6333 104.186 64.56C104.279 64.48 104.326 64.3733 104.326 64.24C104.326 64.12 104.286 64.02 104.206 63.94C104.132 63.8533 104.022 63.7767 103.876 63.71C103.729 63.6433 103.542 63.5733 103.316 63.5C103.102 63.42 102.896 63.3267 102.696 63.22C102.496 63.1067 102.329 62.96 102.196 62.78C102.069 62.5933 102.006 62.3567 102.006 62.07C102.006 61.7967 102.079 61.5667 102.226 61.38C102.372 61.1867 102.569 61.0433 102.816 60.95C103.069 60.85 103.349 60.8 103.656 60.8C103.916 60.8 104.159 60.8333 104.386 60.9C104.612 60.9667 104.822 61.0567 105.016 61.17C105.209 61.2767 105.379 61.4033 105.526 61.55L104.956 62.35C104.789 62.17 104.589 62.0233 104.356 61.91C104.129 61.7967 103.906 61.74 103.686 61.74C103.539 61.74 103.422 61.77 103.336 61.83C103.256 61.8833 103.216 61.9667 103.216 62.08C103.216 62.18 103.256 62.27 103.336 62.35C103.422 62.4233 103.542 62.49 103.696 62.55C103.856 62.61 104.036 62.6833 104.236 62.77C104.482 62.8633 104.709 62.97 104.916 63.09C105.129 63.2033 105.299 63.3467 105.426 63.52C105.552 63.6933 105.616 63.92 105.616 64.2C105.616 64.66 105.466 65.02 105.166 65.28C104.866 65.5333 104.452 65.66 103.926 65.66C103.599 65.66 103.299 65.6167 103.026 65.53C102.759 65.4433 102.516 65.33 102.296 65.19C102.082 65.0433 101.889 64.8867 101.716 64.72L102.346 63.91ZM107.45 59.12C107.45 58.9067 107.527 58.7333 107.68 58.6C107.833 58.46 108.017 58.39 108.23 58.39C108.443 58.39 108.623 58.46 108.77 58.6C108.923 58.7333 109 58.9067 109 59.12C109 59.3267 108.923 59.5 108.77 59.64C108.623 59.78 108.443 59.85 108.23 59.85C108.017 59.85 107.833 59.78 107.68 59.64C107.527 59.5 107.45 59.3267 107.45 59.12ZM107.59 60.9H108.85V65.5H107.59V60.9ZM111.005 65.82H112.275C112.282 66.02 112.335 66.19 112.435 66.33C112.535 66.4767 112.672 66.59 112.845 66.67C113.018 66.75 113.222 66.79 113.455 66.79C113.668 66.79 113.868 66.74 114.055 66.64C114.248 66.54 114.402 66.3867 114.515 66.18C114.635 65.9733 114.695 65.7133 114.695 65.4V60.9H115.945V65.4C115.945 65.9667 115.832 66.4333 115.605 66.8C115.385 67.1667 115.088 67.4333 114.715 67.6C114.342 67.7733 113.935 67.86 113.495 67.86C112.962 67.86 112.515 67.7733 112.155 67.6C111.795 67.4333 111.518 67.1933 111.325 66.88C111.138 66.5733 111.032 66.22 111.005 65.82ZM110.915 63.16C110.915 62.6467 111.018 62.2167 111.225 61.87C111.432 61.5167 111.705 61.25 112.045 61.07C112.385 60.89 112.745 60.8 113.125 60.8C113.512 60.8 113.852 60.8933 114.145 61.08C114.445 61.2667 114.678 61.5367 114.845 61.89C115.018 62.2367 115.105 62.66 115.105 63.16C115.105 63.6533 115.018 64.0767 114.845 64.43C114.678 64.7833 114.445 65.0533 114.145 65.24C113.852 65.42 113.512 65.51 113.125 65.51C112.745 65.51 112.385 65.42 112.045 65.24C111.705 65.06 111.432 64.7967 111.225 64.45C111.018 64.0967 110.915 63.6667 110.915 63.16ZM112.255 63.16C112.255 63.4333 112.312 63.6667 112.425 63.86C112.538 64.0467 112.692 64.19 112.885 64.29C113.078 64.39 113.285 64.44 113.505 64.44C113.698 64.44 113.885 64.3933 114.065 64.3C114.252 64.2 114.402 64.0567 114.515 63.87C114.635 63.6767 114.695 63.44 114.695 63.16C114.695 62.9467 114.662 62.76 114.595 62.6C114.528 62.44 114.435 62.3067 114.315 62.2C114.202 62.0933 114.075 62.0133 113.935 61.96C113.795 61.9 113.652 61.87 113.505 61.87C113.285 61.87 113.078 61.92 112.885 62.02C112.692 62.12 112.538 62.2667 112.425 62.46C112.312 62.6467 112.255 62.88 112.255 63.16ZM121.172 62.7C121.172 62.3933 121.112 62.16 120.992 62C120.872 61.84 120.678 61.76 120.412 61.76C120.232 61.76 120.072 61.8 119.932 61.88C119.792 61.9533 119.685 62.06 119.612 62.2C119.538 62.34 119.502 62.5067 119.502 62.7V65.5H118.202V60.9H119.502V61.6C119.642 61.34 119.825 61.1433 120.052 61.01C120.285 60.87 120.565 60.8 120.892 60.8C121.438 60.8 121.845 60.9567 122.112 61.27C122.378 61.5767 122.512 62.0067 122.512 62.56V65.5H121.172V62.7ZM126.957 65.6C126.457 65.6 126.021 65.5 125.647 65.3C125.274 65.1 124.984 64.8233 124.777 64.47C124.577 64.11 124.477 63.6867 124.477 63.2C124.477 62.7067 124.577 62.2833 124.777 61.93C124.984 61.57 125.274 61.2933 125.647 61.1C126.021 60.9 126.461 60.8 126.967 60.8C127.474 60.8 127.904 60.8933 128.257 61.08C128.617 61.26 128.891 61.5267 129.077 61.88C129.264 62.2267 129.357 62.6467 129.357 63.14C129.357 63.2 129.354 63.2633 129.347 63.33C129.347 63.3967 129.344 63.45 129.337 63.49H125.217V62.69H128.207L127.857 63.15C127.884 63.11 127.907 63.0567 127.927 62.99C127.954 62.9167 127.967 62.8567 127.967 62.81C127.967 62.5833 127.924 62.39 127.837 62.23C127.757 62.07 127.641 61.9433 127.487 61.85C127.334 61.7567 127.154 61.71 126.947 61.71C126.694 61.71 126.481 61.7667 126.307 61.88C126.141 61.9867 126.011 62.15 125.917 62.37C125.831 62.5833 125.784 62.85 125.777 63.17C125.777 63.4767 125.821 63.7367 125.907 63.95C126.001 64.1633 126.137 64.3267 126.317 64.44C126.497 64.5533 126.714 64.61 126.967 64.61C127.254 64.61 127.497 64.5567 127.697 64.45C127.904 64.3367 128.074 64.17 128.207 63.95L129.337 64.3C129.097 64.7333 128.777 65.06 128.377 65.28C127.984 65.4933 127.511 65.6 126.957 65.6ZM132.604 60.9V65.5H131.334V60.9H132.604ZM133.954 62.25C133.868 62.17 133.778 62.11 133.684 62.07C133.598 62.0233 133.488 62 133.354 62C133.194 62 133.058 62.0433 132.944 62.13C132.831 62.2167 132.744 62.34 132.684 62.5C132.631 62.6533 132.604 62.84 132.604 63.06L132.244 62.7C132.244 62.3333 132.314 62.01 132.454 61.73C132.594 61.4433 132.778 61.2167 133.004 61.05C133.231 60.8767 133.464 60.79 133.704 60.79C133.871 60.79 134.028 60.82 134.174 60.88C134.328 60.94 134.451 61.03 134.544 61.15L133.954 62.25ZM136.441 58.5H138.041L137.751 63.29H136.731L136.441 58.5ZM136.421 64.95C136.421 64.73 136.497 64.55 136.651 64.41C136.811 64.2633 137.007 64.19 137.241 64.19C137.481 64.19 137.677 64.2633 137.831 64.41C137.984 64.55 138.061 64.73 138.061 64.95C138.061 65.17 137.984 65.3533 137.831 65.5C137.677 65.64 137.481 65.71 137.241 65.71C137.007 65.71 136.811 65.64 136.651 65.5C136.497 65.3533 136.421 65.17 136.421 64.95Z" fill="black"/>
</svg>
