<svg width="134" height="21" viewBox="0 0 134 21" fill="none" xmlns="http://www.w3.org/2000/svg">
<path d="M24.9785 5.07031C24.9785 6.41016 24.2721 7.66341 22.8594 8.83008C22.0117 9.5319 20.722 10.3066 18.9902 11.1543C19.6921 12.3665 20.043 13.4648 20.043 14.4492C20.043 16.4818 18.7305 17.9857 16.1055 18.9609C14.2279 19.6536 12.0404 20 9.54297 20H2.43359L7.36914 5.97266H12.291L8.09375 17.8125H8.79102C10.3861 17.8125 11.735 17.6302 12.8379 17.2656C14.4694 16.7096 15.2852 15.8027 15.2852 14.5449C15.2852 14.1439 15.1029 13.6654 14.7383 13.1094C14.3737 12.5443 14.1914 12.1341 14.1914 11.8789C14.1914 11.7513 14.2005 11.6602 14.2188 11.6055C14.401 11.2044 14.8978 10.8125 15.709 10.4297C16.8301 9.89193 17.6504 9.39518 18.1699 8.93945C19.0449 8.18294 19.4824 7.30794 19.4824 6.31445C19.4824 4.91081 18.4115 4.20898 16.2695 4.20898H0.273438L2.37891 0.763672H18.334C20.4303 0.763672 22.0026 1.04622 23.0508 1.61133C24.3359 2.30404 24.9785 3.45703 24.9785 5.07031ZM41.7539 17.8125C41.5169 18.6146 41.0111 19.207 40.2363 19.5898C39.6803 19.8633 39.0833 20 38.4453 20H32.6211C31.5911 20 31.0762 19.6263 31.0762 18.8789C31.0762 18.5872 31.1445 18.2318 31.2812 17.8125L32.2656 14.9004L27.084 19.166C26.446 19.722 25.7715 20 25.0605 20H22.2441L28.0957 3.48438H33.0176L28.9023 15.1055L33.0723 11.6875C34.1478 10.8034 35.3691 10.3613 36.7363 10.3613C37.6478 10.3613 38.1035 10.8262 38.1035 11.7559C38.1035 12.0931 38.0215 12.4805 37.8574 12.918L36.1211 17.8125H41.7539ZM59.418 17.8125C58.9805 19.2708 57.8639 20 56.0684 20H50.8867C49.4102 20 48.6719 19.526 48.6719 18.5781C47.6784 19.7083 46.457 20.2734 45.0078 20.2734C43.9414 20.2734 43.0755 19.9453 42.4102 19.2891C41.7448 18.6328 41.4121 17.776 41.4121 16.7188C41.4121 14.8138 42.1413 13.3099 43.5996 12.207C44.9212 11.2044 46.5573 10.7031 48.5078 10.7031H56.3145L53.7441 17.8125H59.418ZM50.5996 12.8906H47.5781L46.6211 16.0762C46.5664 16.2767 46.5391 16.459 46.5391 16.623C46.5391 17.416 47.3138 17.8125 48.8633 17.8125L50.5996 12.8906ZM79.9121 10.7031C79.6842 11.5052 79.1602 12.0977 78.3398 12.4805C77.7656 12.7539 77.1504 12.8906 76.4941 12.8906H70.752L64.9688 20H59.5L58.9121 10.7031H63.875L63.957 17.4297L69.084 10.7031H79.9121ZM90.8496 17.8125C90.6582 18.5143 90.2207 19.0658 89.5371 19.4668C88.9264 19.8223 88.2292 20 87.4453 20H79.8301C75.4004 20 73.1855 18.6647 73.1855 15.9941C73.1855 14.2806 73.9421 12.9362 75.4551 11.9609C76.7585 11.1224 78.3079 10.7031 80.1035 10.7031H82.0859C83.2435 10.7031 84.2598 10.8809 85.1348 11.2363C86.3014 11.7103 86.9121 12.4303 86.9668 13.3965C87.0124 14.3717 86.543 15.1829 85.5586 15.8301H81.0332L82.5098 12.8906H79.625L78.5039 16.1855C78.4401 16.377 78.4082 16.5501 78.4082 16.7051C78.4082 17.4434 79.0007 17.8125 80.1855 17.8125H90.8496ZM107.297 17.8125C107.26 18.4232 106.91 18.9427 106.244 19.3711C105.588 19.7904 104.868 20 104.084 20H93.6934C91.6973 20 90.6992 19.3893 90.6992 18.168C90.6992 18.0586 90.7083 17.9401 90.7266 17.8125C90.7995 17.2656 91.0911 16.8418 91.6016 16.541C92.0391 16.2767 92.5404 16.1491 93.1055 16.1582C94.0898 16.1855 95.4251 16.7279 97.1113 17.7852C97.5944 17.1836 97.8359 16.5729 97.8359 15.9531C97.8359 15.6432 97.64 14.9368 97.248 13.834L95.7031 15.2422H92.9688L96.6055 11.8789C96.4414 11.5964 96.3275 11.3639 96.2637 11.1816C96.1452 10.8444 96.0814 10.4616 96.0723 10.0332L99.4355 6.45117C100.949 6.70638 101.705 7.39453 101.705 8.51562C101.705 9.17188 101.509 9.77799 101.117 10.334C101.454 11.2272 101.796 12.1204 102.143 13.0137C102.562 14.1621 102.771 15.0918 102.771 15.8027C102.771 16.5866 102.462 17.2565 101.842 17.8125H107.297ZM125.973 17.8125C125.736 18.6146 125.23 19.207 124.455 19.5898C123.899 19.8633 123.302 20 122.664 20H116.84C115.81 20 115.295 19.6263 115.295 18.8789C115.295 18.5872 115.363 18.2318 115.5 17.8125L116.484 14.9004L111.303 19.166C110.665 19.722 109.99 20 109.279 20H106.463L112.314 3.48438H117.236L113.121 15.1055L117.291 11.6875C118.367 10.8034 119.588 10.3613 120.955 10.3613C121.867 10.3613 122.322 10.8262 122.322 11.7559C122.322 12.0931 122.24 12.4805 122.076 12.918L120.34 17.8125H125.973Z" fill="black"/>
<path d="M133.957 18.2363C133.957 18.8379 133.725 19.3529 133.26 19.7812C132.795 20.2096 132.234 20.4238 131.578 20.4238C130.913 20.4238 130.348 20.2096 129.883 19.7812C129.427 19.3529 129.199 18.8379 129.199 18.2363C129.199 17.6348 129.427 17.1198 129.883 16.6914C130.348 16.263 130.913 16.0488 131.578 16.0488C132.234 16.0488 132.795 16.263 133.26 16.6914C133.725 17.1198 133.957 17.6348 133.957 18.2363Z" fill="url(#paint0_linear_133_6)"/>
<defs>
<linearGradient id="paint0_linear_133_6" x1="15.4472" y1="-3.38548" x2="143.972" y2="31.902" gradientUnits="userSpaceOnUse">
<stop stop-color="#FFB800"/>
<stop offset="0.296875" stop-color="#FFC081"/>
<stop offset="0.651042" stop-color="#FABAD7"/>
<stop offset="1" stop-color="#288AFF"/>
</linearGradient>
</defs>
</svg>
