<svg width="89" height="89" viewBox="0 0 89 89" fill="none" xmlns="http://www.w3.org/2000/svg">
<g clip-path="url(#clip0_2_242)">
<rect x="0.223724" y="0.223236" width="87.9975" height="88" rx="8" fill="white"/>
<path d="M60.2529 20.2232H28.1921C23.7913 20.2232 20.2237 23.8766 20.2237 28.3832V59.9864C20.2237 64.4931 23.7913 68.1464 28.1921 68.1464H60.2529C64.6536 68.1464 68.2212 64.4931 68.2212 59.9864V28.3832C68.2212 23.8766 64.6536 20.2232 60.2529 20.2232Z" fill="#001E36"/>
<path d="M31.0314 53.83V32.7603C31.0314 32.6067 31.0959 32.5295 31.2247 32.5295L31.4285 32.5289L31.7769 32.5251L32.261 32.5153L33.8828 32.4801L35.6217 32.4471C36.2333 32.4364 36.8397 32.4306 37.4408 32.4306C39.0719 32.4306 40.4457 32.6395 41.5622 33.0571C42.5693 33.406 43.4878 33.9804 44.2508 34.7386C44.8976 35.3959 45.3974 36.1891 45.7158 37.0634C46.017 37.9142 46.1696 38.8126 46.1667 39.7176C46.1667 41.4765 45.7694 42.9272 44.9752 44.07C44.1984 45.1849 43.1149 46.0376 41.8629 46.5192L41.7555 46.5595C40.4481 47.0589 39.0003 47.2394 37.4124 47.2507L37.1657 47.2515L36.7995 47.2495L36.6149 47.2469L36.409 47.2419L36.2849 47.2369L36.2095 47.2328L36.0241 47.2259L35.7974 47.2211L35.4562 47.2186L35.3802 47.2184V53.7969C35.3859 53.8373 35.3823 53.8784 35.3697 53.917C35.3571 53.9557 35.3359 53.9908 35.3078 54.0196C35.2797 54.0484 35.2454 54.0701 35.2076 54.083C35.1699 54.0959 35.1298 54.0996 35.0904 54.0938H31.257C31.1064 54.0938 31.0314 54.0062 31.0314 53.83ZM35.3804 36.4862V43.3583C35.6374 43.3795 35.8951 43.3905 36.1529 43.3913H37.2156C37.9482 43.3888 38.6766 43.2771 39.3779 43.0597L39.5178 43.015C40.1557 42.8209 40.7258 42.4432 41.16 41.9267C41.5635 41.4394 41.7725 40.768 41.787 39.9123L41.7879 39.8165C41.8048 39.1786 41.6428 38.5493 41.3209 38.003C40.9825 37.4747 40.4935 37.066 39.9203 36.8324C39.1718 36.5345 38.3724 36.3944 37.5697 36.4204L37.1614 36.4215L36.9038 36.4238L36.658 36.4271L36.3111 36.434L36.058 36.4413L35.9266 36.4463L35.7509 36.4547L35.6013 36.4641L35.516 36.4711L35.4423 36.4783L35.4099 36.4822L35.3804 36.4862ZM58.6161 42.1087C58.0544 41.8132 57.4586 41.5911 56.8428 41.4479L56.7003 41.4164C56.0228 41.2572 55.3312 41.1695 54.6362 41.1547L54.4626 41.1526C54.0552 41.1413 53.6484 41.1913 53.2552 41.301C53.0048 41.358 52.7823 41.504 52.6271 41.713C52.5221 41.8803 52.4663 42.0749 52.4662 42.2737C52.4721 42.4665 52.54 42.6519 52.6593 42.8011C52.8302 43.0058 53.0356 43.1773 53.2658 43.3074L53.3356 43.3452C53.7947 43.5984 54.2677 43.824 54.7523 44.0211C55.8329 44.3915 56.8654 44.8953 57.8271 45.5214C58.4823 45.9448 59.0246 46.5284 59.405 47.2196C59.7249 47.874 59.8851 48.598 59.8719 49.3297C59.8911 50.296 59.6215 51.2452 59.099 52.0501C58.5397 52.8671 57.7629 53.5022 56.8612 53.8799C55.9168 54.305 54.757 54.5244 53.3819 54.5388L53.239 54.5396C52.3866 54.5484 51.5354 54.472 50.6974 54.3115L50.5182 54.2758C49.8127 54.1433 49.1259 53.9218 48.4736 53.6163C48.408 53.5816 48.3526 53.5298 48.3131 53.466C48.2735 53.4022 48.2511 53.3289 48.2482 53.2534V49.6595C48.2444 49.6246 48.2498 49.5893 48.264 49.5574C48.2782 49.5254 48.3006 49.498 48.3289 49.4781C48.3565 49.4621 48.3883 49.4551 48.4199 49.4581C48.4515 49.461 48.4815 49.4738 48.5058 49.4946C49.2762 49.9598 50.1126 50.2991 50.985 50.5003C51.754 50.6977 52.5429 50.8029 53.3356 50.8136C54.0867 50.8136 54.6394 50.7146 54.9938 50.5168C55.1538 50.4418 55.2891 50.3209 55.3834 50.1688C55.4777 50.0166 55.5269 49.8397 55.5251 49.6595C55.5251 49.3742 55.364 49.0993 55.0421 48.8353C54.9071 48.7247 54.7135 48.6043 54.4615 48.4743L54.3409 48.4136L54.2123 48.3516L54.1448 48.3201L54.0034 48.256C53.9789 48.245 53.9543 48.2342 53.9297 48.2234L53.776 48.1573L53.6959 48.1237L53.5298 48.0556L53.4436 48.021L53.2649 47.9505L53.078 47.8789C52.0669 47.5186 51.1083 47.0194 50.2283 46.3951C49.599 45.9469 49.0807 45.3541 48.7151 44.6641C48.3984 44.0143 48.2384 43.2964 48.2482 42.5703C48.2464 41.6979 48.4804 40.842 48.9243 40.0974C49.4306 39.2775 50.1573 38.6247 51.0173 38.2181C51.9617 37.7348 53.1421 37.4929 54.559 37.4925C55.3888 37.4857 56.2179 37.5463 57.0383 37.6739C57.6324 37.7511 58.2133 37.912 58.7644 38.152C58.8531 38.1781 58.9245 38.2451 58.9575 38.3335C58.9794 38.4139 58.9901 38.497 58.9897 38.5807V41.911C58.9944 41.9897 58.9575 42.0652 58.8932 42.1087C58.8501 42.1307 58.8027 42.1421 58.7546 42.1421C58.7065 42.1421 58.6591 42.1307 58.6161 42.1087Z" fill="#31A8FF"/>
</g>
<defs>
<clipPath id="clip0_2_242">
<rect x="0.223724" y="0.223236" width="88" height="88" rx="8" fill="white"/>
</clipPath>
</defs>
</svg>
