<svg width="125" height="125" viewBox="0 0 125 125" fill="none" xmlns="http://www.w3.org/2000/svg">
<rect x="61.7062" width="87.9975" height="88" rx="8" transform="rotate(44.5234 61.7062 0)" fill="white"/>
<path d="M90.4807 56.3518L67.6226 33.8707C64.485 30.7849 59.3797 30.888 56.2196 34.1011L34.0594 56.633C30.8994 59.8461 30.8812 64.9524 34.0188 68.0382L56.8769 90.5193C60.0145 93.6051 65.1198 93.5019 68.2799 90.2889L90.4401 67.7569C93.6001 64.5439 93.6183 59.4376 90.4807 56.3518Z" fill="#001E36"/>
<path d="M46.0818 59.822L60.8559 44.8001C60.9636 44.6906 61.0637 44.6808 61.1556 44.7711L61.3013 44.9136L61.5523 45.1551L61.9044 45.4876L63.0853 46.5997L64.3482 47.7956C64.7918 48.2167 65.2282 48.6378 65.6567 49.0593C66.8197 50.2031 67.6526 51.3153 68.1558 52.3959C68.6293 53.3508 68.8813 54.4044 68.8936 55.48C68.8939 56.4022 68.6941 57.3182 68.308 58.1648C67.9262 58.9826 67.405 59.7301 66.7684 60.3733C65.535 61.6273 64.2345 62.3831 62.867 62.641C61.5314 62.8911 60.161 62.7393 58.9306 62.2047L58.8258 62.1582C57.5435 61.5975 56.3847 60.711 55.2447 59.6056L55.0682 59.4332L54.8085 59.175L54.6787 59.0436L54.5354 58.8957L54.4505 58.8051L54.3995 58.7494L54.2722 58.6144L54.1139 58.4521L53.8724 58.211L53.8184 58.1576L49.2056 62.8479C49.1813 62.8806 49.1499 62.9074 49.1138 62.9261C49.0778 62.9448 49.038 62.955 48.9978 62.9558C48.9575 62.9567 48.9179 62.9481 48.8819 62.9308C48.846 62.9135 48.8148 62.888 48.7908 62.8563L46.0577 60.1683C45.9503 60.0627 45.9583 59.9477 46.0818 59.822ZM61.344 50.5061L56.5253 55.4056C56.6936 55.601 56.8696 55.7895 57.0529 55.9708L57.8105 56.716C58.3347 57.2279 58.9323 57.659 59.5847 57.9958L59.7158 58.062C60.3067 58.371 60.978 58.5014 61.6497 58.4376C62.2791 58.3731 62.8989 58.041 63.5093 57.441L63.5771 57.3734C64.0364 56.9304 64.3622 56.3681 64.5157 55.753C64.6449 55.1391 64.5829 54.5048 64.338 53.9363C64.0133 53.1991 63.5415 52.5385 62.9511 51.9943L62.6591 51.7088L62.4738 51.5298L62.2963 51.3598L62.0442 51.1215L61.8586 50.9492L61.7614 50.8606L61.6302 50.7434L61.5169 50.6452L61.4513 50.5903L61.3936 50.5439L61.3678 50.5239L61.344 50.5061ZM73.9676 70.8076C73.7744 70.203 73.5054 69.627 73.1667 69.093L73.0872 68.9706C72.7158 68.3821 72.2842 67.8346 71.7991 67.3367L71.6768 67.2135C71.3943 66.9198 71.0692 66.6701 70.7119 66.4726C70.4934 66.3377 70.2324 66.2858 69.9752 66.326C69.7831 66.3717 69.6068 66.4712 69.4674 66.6129C69.3364 66.7545 69.2548 66.9343 69.2352 67.1244C69.2135 67.3901 69.2398 67.6564 69.3126 67.9106L69.3358 67.9865C69.4856 68.4889 69.6646 68.9814 69.872 69.4617C70.3826 70.4836 70.7655 71.5668 71.0122 72.6875C71.1824 73.4488 71.1598 74.2451 70.9464 75.0047C70.7156 75.6955 70.3221 76.324 69.7997 76.8364C69.1358 77.5389 68.278 78.0266 67.3411 78.2341C66.3695 78.4244 65.3703 78.3325 64.4625 77.9695C63.4911 77.6103 62.5103 76.9535 61.5199 75.9996L61.4175 75.9C60.8035 75.3085 60.2502 74.6572 59.7653 73.9552L59.6626 73.804C59.2525 73.2148 58.9182 72.5753 58.6673 71.9001C58.6449 71.8295 58.6418 71.7536 58.6582 71.6804C58.6747 71.6072 58.7102 71.5392 58.7611 71.4834L61.2811 68.9211C61.3028 68.8935 61.3315 68.8722 61.364 68.8594C61.3965 68.8465 61.4317 68.8427 61.4658 68.8483C61.4968 68.8563 61.5243 68.8735 61.5448 68.8978C61.5653 68.9221 61.5777 68.9522 61.5804 68.9842C61.8035 69.856 62.1619 70.6844 62.6428 71.4396C63.0527 72.1196 63.5413 72.7477 64.099 73.3112C64.6345 73.8379 65.098 74.1548 65.4893 74.2623C65.656 74.321 65.8373 74.3297 66.0112 74.2874C66.1851 74.245 66.3442 74.1534 66.4693 74.0237C66.6693 73.8202 66.7473 73.5113 66.7029 73.0973C66.6842 72.9238 66.6305 72.7022 66.542 72.4328L66.4986 72.305L66.4504 72.1706L66.4243 72.1008L66.3685 71.956C66.3587 71.931 66.3488 71.906 66.3389 71.8811L66.2756 71.7262L66.2421 71.6461L66.1714 71.481L66.1342 71.3959L66.0562 71.2204L65.9731 71.0382C65.505 70.0724 65.1715 69.0443 64.9818 67.9822C64.8475 67.2213 64.8937 66.4352 65.1168 65.6869C65.3466 65.0016 65.7359 64.3775 66.2521 63.8668C66.8626 63.2435 67.6296 62.7973 68.4682 62.5777C69.404 62.3482 70.3798 62.3923 71.2781 62.7054C72.2903 63.0231 73.3016 63.6783 74.312 64.6715C74.9084 65.2486 75.457 65.8732 75.9525 66.5394C76.3219 67.011 76.6232 67.533 76.8478 68.0906C76.8928 68.1714 76.8967 68.2693 76.8583 68.3554C76.8175 68.4281 76.7668 68.4949 76.7079 68.5543L74.3727 70.9286C74.3209 70.988 74.2416 71.0159 74.1652 71.0019C74.1191 70.9874 74.0773 70.9622 74.043 70.9285C74.0088 70.8948 73.983 70.8534 73.9676 70.8076Z" fill="#31A8FF"/>
</svg>
