<svg width="76" height="76" viewBox="0 0 76 76" fill="none" xmlns="http://www.w3.org/2000/svg">
<circle cx="38" cy="38" r="38" fill="#F5F5F7"/>
<circle cx="38" cy="38" r="37.5" stroke="white" stroke-opacity="0.2"/>
<path d="M49 38.0006C49.0008 38.3402 48.9138 38.6741 48.7473 38.9701C48.5808 39.266 48.3406 39.5138 48.05 39.6894L30.04 50.7069C29.7364 50.8928 29.3886 50.9943 29.0326 51.0009C28.6766 51.0075 28.3253 50.9189 28.015 50.7444C27.7076 50.5725 27.4516 50.3219 27.2732 50.0183C27.0948 49.7147 27.0005 49.369 27 49.0169V26.9844C27.0005 26.6322 27.0948 26.2866 27.2732 25.983C27.4516 25.6793 27.7076 25.4287 28.015 25.2569C28.3253 25.0823 28.6766 24.9938 29.0326 25.0003C29.3886 25.0069 29.7364 25.1084 30.04 25.2944L48.05 36.3119C48.3406 36.4875 48.5808 36.7353 48.7473 37.0312C48.9138 37.3271 49.0008 37.6611 49 38.0006Z" fill="black"/>
</svg>
