<svg xmlns="http://www.w3.org/2000/svg" fill="currentColor" viewBox="0 0 24 24"><g class="rain"><path d="M19.993 16.91c-.54.109-.993-.349-.993-.901s.46-.985.982-1.165A2.999 2.999 0 0 0 19 9.009h-2.104a.995.995 0 0 1-.976-.8 4 4 0 0 0-7.84 0 .995.995 0 0 1-.976.8H5a3 3 0 0 0-.982 5.835c.522.18.982.613.982 1.165s-.452 1.01-.993.9A5 5 0 0 1 5 7.01h1.34a6 6 0 0 1 11.32 0H19a5 5 0 0 1 .993 9.9Zm-10.99.516a1.004 1.004 0 0 0-1.42-1.42l-2.586 2.586a1.004 1.004 0 0 0 1.42 1.42l2.586-2.586Zm4 0a1.004 1.004 0 0 0-1.42-1.42l-2.586 2.586a1.004 1.004 0 0 0 1.42 1.42l2.586-2.586Zm4 0a1.004 1.004 0 0 0-1.42-1.42l-2.586 2.586a1.004 1.004 0 0 0 1.42 1.42l2.586-2.586Z" class="Vector"/></g></svg>