<svg width="119" height="119" viewBox="0 0 119 119" fill="none" xmlns="http://www.w3.org/2000/svg">
<rect x="0.00012207" y="40" width="87.9975" height="88" rx="8" transform="rotate(-27.0314 0.00012207 40)" fill="white"/>
<path d="M40.6431 48.8898L50.6222 42.4056L61.7296 38.1328L75.4401 44.8432L67.7565 75.9881L38.0303 63.9303L40.6431 48.8898Z" fill="#FDB300"/>
<path d="M45.6037 60.0578L67.7565 75.9881L38.0269 63.9236L45.6037 60.0578ZM67.8599 48.7024L67.7565 75.9881L75.4367 44.8366L67.8599 48.7024Z" fill="#EA6C00"/>
<path d="M45.6037 60.0578L67.8599 48.7024L67.7565 75.9881L45.6037 60.0578Z" fill="#FDAD00"/>
<path d="M50.6222 42.4056L40.6431 48.8898L45.6037 60.0578L50.6222 42.4056ZM50.6222 42.4056L61.7289 38.1315L67.8599 48.7024L50.6222 42.4056Z" fill="#FDD231"/>
<path d="M75.4367 44.8366L61.7289 38.1315L67.8599 48.7024L75.4367 44.8366ZM38.0269 63.9236L40.6431 48.8898L45.6037 60.0578L38.0269 63.9236Z" fill="#FDAD00"/>
<path d="M50.6222 42.4056L45.6037 60.0578L67.8599 48.7024L50.6222 42.4056Z" fill="#FEEEB7"/>
</svg>
