<svg width="89" height="89" viewBox="0 0 89 89" fill="none" xmlns="http://www.w3.org/2000/svg">
<g clip-path="url(#clip0_2_243)">
<rect x="0.190491" y="0.196289" width="87.9975" height="88" rx="8" fill="white"/>
<path d="M32.3533 26.5863L44.1892 25.3458L56.0251 26.5878L65.1881 38.7963L44.1892 63.0468L23.1903 38.7963L32.3533 26.5863Z" fill="#FDB300"/>
<path d="M31.6964 38.7888L44.1892 63.0468L23.1903 38.7888H31.6964ZM56.682 38.7888L44.1892 63.0468L65.1881 38.7888H56.682Z" fill="#EA6C00"/>
<path d="M31.6964 38.7888H56.6821L44.1893 63.0468L31.6964 38.7888Z" fill="#FDAD00"/>
<path d="M44.1893 25.3458L32.3534 26.5863L31.6964 38.7888L44.1893 25.3458ZM44.1893 25.3458L56.0251 26.5863L56.6821 38.7888L44.1893 25.3458Z" fill="#FDD231"/>
<path d="M65.1881 38.7888L56.0251 26.5863L56.682 38.7888H65.1881ZM23.1903 38.7888L32.3533 26.5863L31.6964 38.7888H23.1903Z" fill="#FDAD00"/>
<path d="M44.1893 25.3458L31.6964 38.7888H56.6821L44.1893 25.3458Z" fill="#FEEEB7"/>
</g>
<defs>
<clipPath id="clip0_2_243">
<rect x="0.190491" y="0.196289" width="88" height="88" rx="8" fill="white"/>
</clipPath>
</defs>
</svg>
