<svg xmlns="http://www.w3.org/2000/svg" fill="currentColor" viewBox="0 0 24 24"><g class="snow"><path d="M24 10.009a5 5 0 0 1-4.007 4.9c-.54.11-.993-.348-.993-.9s.46-.985.982-1.165A2.999 2.999 0 0 0 19 7.009h-2.104a.995.995 0 0 1-.976-.8 4 4 0 0 0-7.84 0 .995.995 0 0 1-.976.8H5a3 3 0 0 0-.982 5.835c.522.18.982.613.982 1.165s-.452 1.01-.993.9A5 5 0 0 1 5 5.01h.632c.424 0 .795-.272.982-.653a6 6 0 0 1 10.772 0c.187.381.558.653.982.653H19a5 5 0 0 1 5 5Zm-13 3a1 1 0 1 0-2 0 1 1 0 0 1-1 1 1 1 0 1 0 0 2 1 1 0 0 1 1 1 1 1 0 1 0 2 0 1 1 0 0 1 1-1 1 1 0 1 0 0-2 1 1 0 0 1-1-1Zm6 4a1 1 0 1 0-2 0 1 1 0 0 1-1 1 1 1 0 1 0 0 2 1 1 0 0 1 1 1 1 1 0 1 0 2 0 1 1 0 0 1 1-1 1 1 0 1 0 0-2 1 1 0 0 1-1-1Z" class="Vector"/></g></svg>