<svg width="75" height="75" viewBox="0 0 75 75" fill="none" xmlns="http://www.w3.org/2000/svg">
<ellipse cx="34.5" cy="36.5" rx="31.3158" ry="29.0789" fill="white"/>
<path d="M37.296 0.710526C16.9125 0.710526 1.50657 18.0461 0.388153 37.6184C0.388153 58.0031 16.9128 74.5263 37.296 74.5263C57.681 74.5263 74.2039 58.0031 74.2039 37.6184C74.2039 17.2366 57.681 0.712544 37.2955 0.712544L37.296 0.710526ZM54.2215 53.9427C53.5603 55.0268 52.1411 55.3705 51.0569 54.705C42.3914 49.4119 31.4828 48.213 18.6356 51.1483C18.0407 51.2837 17.4164 51.1773 16.8999 50.8525C16.3835 50.5277 16.0171 50.0111 15.8814 49.4163C15.8138 49.1218 15.8049 48.8169 15.8553 48.5189C15.9057 48.221 16.0143 47.936 16.175 47.6801C16.3357 47.4243 16.5453 47.2026 16.7918 47.0279C17.0383 46.8531 17.3168 46.7287 17.6115 46.6617C31.6711 43.4496 43.7304 44.8325 53.4591 50.7781C54.5433 51.4436 54.887 52.8585 54.2215 53.9427ZM58.739 43.8931C57.9056 45.2468 56.1341 45.6744 54.7812 44.8414C44.8604 38.7435 29.7377 36.9774 18.0036 40.5393C16.4817 40.999 14.8745 40.1414 14.4126 38.6221C13.9541 37.1003 14.8122 35.4959 16.3315 35.0334C29.7351 30.9661 46.3985 32.9363 57.7915 39.9373C59.1444 40.7706 59.572 42.5419 58.739 43.8931ZM59.1268 33.4282C47.2315 26.3627 27.606 25.7127 16.249 29.1602C14.4253 29.7132 12.4965 28.6835 11.9441 26.8598C11.3913 25.0351 12.4198 23.1079 14.245 22.5534C27.2819 18.5956 48.9549 19.3605 62.6498 27.4907C64.2939 28.4641 64.8314 30.5829 63.8573 32.2209C62.8879 33.8616 60.7634 34.4022 59.1285 33.4282H59.1268Z" fill="#1ED760"/>
</svg>
