<svg width="48" height="48" viewBox="0 0 48 48" fill="none" xmlns="http://www.w3.org/2000/svg">
<g id="vscode-icons:file-type-sketch">
<path id="Vector" d="M12.163 6.39001L23.9989 5.14951L35.8348 6.39151L44.9978 18.6L23.9989 42.8505L3 18.6L12.163 6.39001Z" fill="#FDB300"/>
<path id="Vector_2" d="M11.506 18.5925L23.9989 42.8505L3 18.5925H11.506ZM36.4917 18.5925L23.9989 42.8505L44.9978 18.5925H36.4917Z" fill="#EA6C00"/>
<path id="Vector_3" d="M11.5059 18.5925H36.4915L23.9987 42.8505L11.5059 18.5925Z" fill="#FDAD00"/>
<path id="Vector_4" d="M23.9987 5.14951L12.1628 6.39001L11.5059 18.5925L23.9987 5.14951ZM23.9987 5.14951L35.8346 6.39001L36.4915 18.5925L23.9987 5.14951Z" fill="#FDD231"/>
<path id="Vector_5" d="M44.9978 18.5925L35.8348 6.39001L36.4917 18.5925H44.9978ZM3 18.5925L12.163 6.39001L11.506 18.5925H3Z" fill="#FDAD00"/>
<path id="Vector_6" d="M23.9987 5.14951L11.5059 18.5925H36.4915L23.9987 5.14951Z" fill="#FEEEB7"/>
</g>
</svg>
